<svg width="226" height="160" viewBox="0 0 226 160" fill="none" xmlns="http://www.w3.org/2000/svg">
<g clip-path="url(#clip0_9316_87129)">
<path d="M206.315 152.715C210.104 152.715 213.176 152.203 213.176 151.571C213.176 150.939 210.104 150.427 206.315 150.427C202.526 150.427 199.454 150.939 199.454 151.571C199.454 152.203 202.526 152.715 206.315 152.715Z" fill="#F2F2F2"/>
<path d="M214.32 42.3203H213.748V54.3321H214.32V42.3203Z" fill="#F2F2F2"/>
<path d="M208.03 34.5986H204.6V153H208.03V34.5986Z" fill="#F2F2F2"/>
<path d="M222.02 43.8932H190.61C190.265 43.8933 189.924 43.82 189.61 43.6782C189.296 43.5365 189.016 43.3295 188.788 43.0711C188.56 42.8127 188.389 42.5088 188.288 42.1794C188.186 41.85 188.156 41.5028 188.198 41.1608L192.201 9.12946C192.275 8.54186 192.561 8.00148 193.005 7.6095C193.448 7.21753 194.02 7.00084 194.612 7H218.018C218.61 7.00084 219.181 7.21753 219.625 7.6095C220.069 8.00148 220.355 8.54186 220.429 9.12946L224.431 41.1608C224.474 41.5028 224.443 41.85 224.342 42.1794C224.24 42.5088 224.07 42.8127 223.842 43.0711C223.614 43.3295 223.333 43.5365 223.019 43.6782C222.705 43.82 222.364 43.8933 222.02 43.8932Z" fill="#F6CF0A"/>
<path d="M214.033 56.334C215.139 56.334 216.034 55.4377 216.034 54.332C216.034 53.2264 215.139 52.3301 214.033 52.3301C212.928 52.3301 212.032 53.2264 212.032 54.332C212.032 55.4377 212.928 56.334 214.033 56.334Z" fill="#F2F2F2"/>
<path d="M23.5742 121.215C22.1299 126.228 17.9129 129.737 13.514 132.717C12.8998 133.134 12.2854 133.54 11.6708 133.937C11.6666 133.939 11.6623 133.943 11.6581 133.945C11.6285 133.964 11.5989 133.983 11.5714 134.002C11.4445 134.084 11.3176 134.166 11.1918 134.247L11.2609 134.278C11.2609 134.278 11.3288 134.314 11.2545 134.284C11.2324 134.274 11.2093 134.266 11.1873 134.257C8.63176 133.226 6.03088 132.118 4.07247 130.187C2.04092 128.181 0.853689 125.035 1.95376 122.4C2.09835 122.055 2.28099 121.727 2.49829 121.422C2.58752 121.294 2.68362 121.172 2.78368 121.052C3.39048 120.311 4.18359 119.745 5.08145 119.413C5.97932 119.08 6.94953 118.993 7.89233 119.16C8.83512 119.326 9.71648 119.742 10.4458 120.362C11.1751 120.983 11.726 121.786 12.0418 122.691C12.365 119.68 9.88383 117.159 7.49607 115.298C5.10725 113.439 2.39289 111.413 1.93107 108.42C1.67317 106.754 2.25212 105.14 3.30675 103.844C3.3394 103.805 3.37201 103.766 3.40564 103.727C4.68944 102.218 6.49508 101.249 8.46191 101.014C12.1248 100.633 15.6828 102.573 18.3439 105.12C22.6268 109.22 25.216 115.516 23.5742 121.215Z" fill="#F2F2F2"/>
<path d="M16.689 114.66C17.3919 115.754 17.9317 116.945 18.2911 118.195C18.5951 119.312 18.7304 120.469 18.6925 121.626C18.5944 124.008 17.9262 126.331 16.7439 128.4C15.8533 129.97 14.768 131.421 13.5137 132.718C12.8995 133.134 12.2851 133.541 11.6705 133.938C11.6664 133.94 11.6621 133.944 11.6579 133.946C11.6283 133.965 11.5987 133.984 11.5711 134.003C11.4443 134.085 11.3174 134.167 11.1916 134.247C11.1916 134.247 11.3285 134.315 11.2543 134.284C11.2322 134.275 11.2091 134.267 11.187 134.257C11.416 132.379 11.1917 130.473 10.5327 128.699C9.87369 126.925 8.79928 125.335 7.39949 124.061C5.99632 122.808 4.31686 121.904 2.49805 121.423C2.58728 121.295 2.68338 121.173 2.78344 121.053C3.4859 121.25 4.16957 121.509 4.82646 121.826C7.17464 122.954 9.09736 124.809 10.31 127.115C11.3982 129.21 11.8665 131.571 11.6601 133.922C11.765 133.827 11.8702 133.73 11.9721 133.633C13.914 131.822 15.6388 129.743 16.8061 127.344C17.8188 125.312 18.3165 123.062 18.2554 120.793C18.1602 118.318 17.1745 116.025 15.7475 114.03C14.1834 111.901 12.3357 109.996 10.2557 108.368C8.15957 106.688 5.86583 105.271 3.42564 104.149C3.37061 104.123 3.32755 104.077 3.30538 104.021C3.28321 103.964 3.28362 103.901 3.30653 103.845C3.3228 103.795 3.35834 103.753 3.40542 103.728C3.42964 103.718 3.4559 103.713 3.48225 103.714C3.50861 103.715 3.53437 103.722 3.55762 103.735C3.8589 103.873 4.15809 104.014 4.45488 104.161C6.92686 105.383 9.23749 106.908 11.3337 108.7C13.3584 110.427 15.2646 112.4 16.689 114.66Z" fill="#C31C4A"/>
<path d="M2.72438 133.839H18.5513C18.7249 133.839 18.8965 133.876 19.0548 133.947C19.213 134.019 19.3543 134.123 19.4692 134.253C19.5841 134.383 19.67 134.536 19.7212 134.702C19.7724 134.868 19.7877 135.043 19.7662 135.216L17.7496 151.356C17.7122 151.652 17.5682 151.924 17.3445 152.121C17.1209 152.319 16.833 152.428 16.5347 152.428H4.74099C4.44269 152.428 4.15476 152.319 3.93113 152.121C3.70749 151.924 3.56349 151.652 3.52608 151.356L1.50946 135.216C1.48792 135.043 1.50326 134.868 1.55447 134.702C1.60568 134.536 1.69158 134.383 1.80648 134.253C1.92137 134.123 2.06263 134.019 2.22089 133.947C2.37914 133.876 2.55077 133.839 2.72438 133.839Z" fill="#F6CF0A"/>
<path d="M54.3284 152.552C55.4223 152.552 56.3091 151.665 56.3091 150.57C56.3091 149.476 55.4223 148.589 54.3284 148.589C53.2345 148.589 52.3477 149.476 52.3477 150.57C52.3477 151.665 53.2345 152.552 54.3284 152.552Z" fill="#CCCCCC"/>
<path d="M179.444 152.552C180.538 152.552 181.424 151.665 181.424 150.57C181.424 149.476 180.538 148.589 179.444 148.589C178.35 148.589 177.463 149.476 177.463 150.57C177.463 151.665 178.35 152.552 179.444 152.552Z" fill="#CCCCCC"/>
<path d="M90.6415 122.993H59.6101C58.166 122.992 56.7814 122.417 55.7603 121.396C54.7391 120.374 54.1647 118.989 54.1631 117.544V96.4073C54.1647 94.9626 54.7391 93.5775 55.7603 92.5559C56.7814 91.5343 58.166 90.9596 59.6101 90.958H90.6415C92.0856 90.9596 93.4701 91.5343 94.4913 92.5559C95.5125 93.5775 96.0868 94.9626 96.0885 96.4073V117.544C96.0868 118.989 95.5124 120.374 94.4913 121.396C93.4701 122.417 92.0856 122.992 90.6415 122.993Z" fill="#E6E6E6"/>
<path d="M132.401 123.159H101.37C99.9257 123.158 98.5412 122.583 97.52 121.562C96.4989 120.54 95.9245 119.155 95.9229 117.71V96.5734C95.9245 95.1286 96.4989 93.7435 97.52 92.7219C98.5412 91.7003 99.9257 91.1257 101.37 91.124H132.401C133.845 91.1257 135.23 91.7003 136.251 92.7219C137.272 93.7435 137.847 95.1286 137.848 96.5734V117.71C137.847 119.155 137.272 120.54 136.251 121.562C135.23 122.583 133.845 123.158 132.401 123.159Z" fill="#E6E6E6"/>
<path d="M174.162 123.323H143.131C141.686 123.322 140.302 122.747 139.281 121.726C138.26 120.704 137.685 119.319 137.684 117.874V96.7374C137.685 95.2927 138.26 93.9075 139.281 92.886C140.302 91.8644 141.686 91.2897 143.131 91.2881H174.162C175.606 91.2897 176.991 91.8644 178.012 92.886C179.033 93.9075 179.607 95.2927 179.609 96.7374V117.874C179.607 119.319 179.033 120.704 178.012 121.726C176.991 122.747 175.606 123.322 174.162 123.323Z" fill="#E6E6E6"/>
<path d="M186.046 121.838H49.376V150.406H186.046V121.838Z" fill="#E6E6E6"/>
<path d="M54.3277 150.571H48.3855C45.382 150.571 42.9385 147.795 42.9385 144.384V114.572H54.3277V150.571Z" fill="#E6E6E6"/>
<path d="M185.386 150.569H179.443V109.947H190.833V143.588C190.833 147.437 188.389 150.569 185.386 150.569Z" fill="#E6E6E6"/>
<path d="M96.2535 127.782H54.3281V118.865C68.3033 110.845 82.2784 110.845 96.2535 118.865V127.782Z" fill="#C31C4A"/>
<path d="M138.013 127.948H96.0879V119.031C110.063 111.011 124.038 111.011 138.013 119.031V127.948Z" fill="#C31C4A"/>
<path d="M179.773 128.112H137.848V119.195C151.823 111.175 165.798 111.175 179.773 119.195V128.112Z" fill="#C31C4A"/>
<path d="M46.2395 122.167C51.618 122.167 55.9781 117.805 55.9781 112.424C55.9781 107.044 51.618 102.682 46.2395 102.682C40.8611 102.682 36.501 107.044 36.501 112.424C36.501 117.805 40.8611 122.167 46.2395 122.167Z" fill="#C31C4A"/>
<path d="M188.852 121.838C194.23 121.838 198.59 117.476 198.59 112.095C198.59 106.715 194.23 102.353 188.852 102.353C183.473 102.353 179.113 106.715 179.113 112.095C179.113 117.476 183.473 121.838 188.852 121.838Z" fill="#C31C4A"/>
<path d="M223.935 153H2.42472C2.35973 153 2.29741 152.947 2.25146 152.854C2.2055 152.76 2.17969 152.633 2.17969 152.5C2.17969 152.367 2.2055 152.24 2.25146 152.146C2.29741 152.053 2.35973 152 2.42472 152H223.935C224 152 224.062 152.053 224.108 152.146C224.154 152.24 224.18 152.367 224.18 152.5C224.18 152.633 224.154 152.76 224.108 152.854C224.062 152.947 224 153 223.935 153Z" fill="#333333"/>
<path d="M125.122 57.7647H96.2486C95.5665 57.764 94.9125 57.4925 94.4302 57.01C93.9479 56.5274 93.6766 55.8732 93.6758 55.1908V30.3093C93.6766 29.6269 93.9479 28.9726 94.4302 28.4901C94.9125 28.0076 95.5665 27.7361 96.2486 27.7354H125.122C125.804 27.7361 126.458 28.0076 126.94 28.4901C127.422 28.9726 127.694 29.6269 127.695 30.3093V55.1908C127.694 55.8732 127.422 56.5274 126.94 57.01C126.458 57.4925 125.804 57.764 125.122 57.7647ZM96.2486 28.3073C95.7181 28.3079 95.2094 28.519 94.8343 28.8944C94.4591 29.2697 94.2481 29.7785 94.2475 30.3093V55.1908C94.2481 55.7216 94.4591 56.2304 94.8343 56.6057C95.2094 56.981 95.7181 57.1922 96.2486 57.1927H125.122C125.652 57.1922 126.161 56.981 126.536 56.6057C126.911 56.2304 127.122 55.7216 127.123 55.1908V30.3093C127.122 29.7785 126.911 29.2697 126.536 28.8944C126.161 28.519 125.652 28.3079 125.122 28.3073H96.2486Z" fill="#C31C4A"/>
<path d="M120.9 53.9032H100.47C99.8257 53.9025 99.2081 53.6462 98.7525 53.1904C98.297 52.7347 98.0408 52.1168 98.04 51.4723V34.0267C98.0408 33.3821 98.297 32.7642 98.7525 32.3085C99.2081 31.8528 99.8257 31.5964 100.47 31.5957H120.9C121.544 31.5964 122.162 31.8528 122.617 32.3085C123.073 32.7642 123.329 33.3821 123.33 34.0267V51.4723C123.329 52.1168 123.073 52.7347 122.617 53.1904C122.162 53.6462 121.544 53.9025 120.9 53.9032Z" fill="#E6E6E6"/>
<path d="M110.828 24.0172C111.617 24.0172 112.257 23.3769 112.257 22.5872C112.257 21.7974 111.617 21.1572 110.828 21.1572C110.038 21.1572 109.398 21.7974 109.398 22.5872C109.398 23.3769 110.038 24.0172 110.828 24.0172Z" fill="#F6CF0A"/>
<path d="M113.833 28.1682L110.828 23.1452L107.841 28.1673L107.35 27.875L110.827 22.0293L114.323 27.8742L113.833 28.1682Z" fill="#F6CF0A"/>
<path d="M114.116 40.7469C114.115 40.3141 114.067 39.8826 113.974 39.46H109.685C109.381 39.46 109.09 39.5805 108.876 39.795C108.661 40.0096 108.541 40.3005 108.541 40.6039V46.7311C110.054 46.6237 111.471 45.9466 112.505 44.8363C113.539 43.7259 114.115 42.2647 114.116 40.7469Z" fill="#C31C4A"/>
<path d="M108.112 47.0398C106.926 47.0402 105.763 46.705 104.759 46.0729C103.756 45.4408 102.951 44.5375 102.438 43.4674C101.925 42.3972 101.726 41.2038 101.862 40.025C101.998 38.8461 102.465 37.7299 103.208 36.8051C103.952 35.8803 104.941 35.1846 106.063 34.7985C107.185 34.4123 108.393 34.3514 109.547 34.6227C110.702 34.894 111.757 35.4865 112.589 36.3318C113.422 37.1771 113.999 38.2408 114.253 39.3999L114.328 39.7469H109.684C109.457 39.7472 109.239 39.8377 109.078 39.9985C108.917 40.1594 108.827 40.3775 108.826 40.6049V46.9986L108.511 47.021C108.379 47.0306 108.246 47.0398 108.112 47.0398ZM108.112 35.028C106.595 35.028 105.141 35.6307 104.069 36.7034C102.997 37.7761 102.394 39.2309 102.394 40.7479C102.394 42.2649 102.997 43.7198 104.069 44.7925C105.141 45.8652 106.595 46.4678 108.112 46.4678C108.16 46.4678 108.207 46.4664 108.255 46.4642V40.6049C108.255 40.2258 108.406 39.8623 108.674 39.5943C108.942 39.3262 109.305 39.1754 109.684 39.175H113.607C113.26 37.9833 112.538 36.9356 111.548 36.1882C110.558 35.4408 109.352 35.0339 108.112 35.028Z" fill="#F6CF0A"/>
<path d="M116.545 48.8986H109.684C109.305 48.8982 108.942 48.7474 108.674 48.4793C108.406 48.2112 108.255 47.8478 108.255 47.4686V46.4656L108.521 46.4467C109.339 46.3902 110.136 46.1576 110.856 45.7649C111.576 45.3722 112.203 44.8286 112.695 44.1712C113.186 43.5138 113.529 42.7582 113.702 41.9558C113.874 41.1534 113.872 40.3232 113.694 39.522L113.618 39.1748H116.545C116.924 39.1752 117.287 39.326 117.555 39.5941C117.823 39.8622 117.974 40.2257 117.975 40.6048V47.4686C117.974 47.8478 117.823 48.2112 117.555 48.4793C117.287 48.7474 116.924 48.8982 116.545 48.8986ZM108.827 46.9927V47.4686C108.827 47.6961 108.917 47.9142 109.078 48.075C109.239 48.2359 109.457 48.3264 109.684 48.3266H116.545C116.773 48.3264 116.991 48.2359 117.151 48.075C117.312 47.9142 117.403 47.6961 117.403 47.4686V40.6048C117.403 40.3773 117.312 40.1592 117.151 39.9984C116.991 39.8375 116.773 39.747 116.545 39.7468H114.319C114.373 40.0777 114.401 40.4124 114.401 40.7478C114.396 42.2905 113.826 43.7779 112.799 44.9286C111.771 46.0794 110.358 46.8137 108.827 46.9927Z" fill="white"/>
</g>
<defs>
<clipPath id="clip0_9316_87129">
<rect width="225" height="160" fill="white" transform="translate(0.5)"/>
</clipPath>
</defs>
</svg>
