<svg width="224" height="162" viewBox="0 0 224 162" fill="none" xmlns="http://www.w3.org/2000/svg">
<g clip-path="url(#clip0_9316_87040)">
<path d="M186.695 122.903L194.59 124.102C197.263 120.957 199.105 117.225 199.957 113.23C194.184 117.824 185.404 115.383 178.404 117.891C176.226 118.689 174.262 119.954 172.656 121.59C171.05 123.227 169.843 125.194 169.125 127.346L165.267 131.381C168.759 132.725 172.511 133.317 176.261 133.116C180.012 132.915 183.674 131.927 186.994 130.218C188.846 129.242 190.565 128.042 192.11 126.648C189.347 124.957 186.695 122.903 186.695 122.903Z" fill="#F2F2F2"/>
<path d="M183.892 110.629L191.51 108.28C192.458 104.306 192.395 100.167 191.325 96.2227C188.265 102.837 179.287 104.458 174.172 109.737C172.59 111.395 171.412 113.379 170.725 115.54C170.038 117.701 169.861 119.985 170.206 122.222L168.604 127.506C172.346 127.195 175.975 126.099 179.241 124.293C182.506 122.487 185.329 120.015 187.517 117.047C188.727 115.37 189.715 113.551 190.458 111.634C187.209 111.318 183.892 110.629 183.892 110.629Z" fill="#F2F2F2"/>
<path d="M200 133.825C200 133.864 199.992 133.904 199.977 133.94C199.961 133.977 199.938 134.01 199.909 134.038C199.881 134.066 199.846 134.088 199.809 134.103C199.771 134.118 199.731 134.126 199.69 134.126H24.31C24.2278 134.126 24.1489 134.094 24.0908 134.038C24.0327 133.981 24 133.905 24 133.825C24 133.745 24.0327 133.668 24.0908 133.612C24.1489 133.555 24.2278 133.523 24.31 133.523H199.69C199.731 133.523 199.771 133.531 199.809 133.546C199.846 133.561 199.881 133.583 199.909 133.611C199.938 133.639 199.961 133.673 199.977 133.709C199.992 133.746 200 133.785 200 133.825Z" fill="#CCCCCC"/>
<path d="M96.6736 120.981C127.604 120.981 152.677 96.6099 152.677 66.5463C152.677 36.4827 127.604 12.1113 96.6736 12.1113C65.7436 12.1113 40.6699 36.4827 40.6699 66.5463C40.6699 96.6099 65.7436 120.981 96.6736 120.981Z" fill="#C31C4A"/>
<path d="M144.863 66.5464C144.868 73.8551 143.112 81.0633 139.734 87.5931C136.356 94.1229 131.451 99.7924 125.413 104.147C125.009 104.441 124.597 104.727 124.183 105.005C116.108 110.461 106.508 113.386 96.6736 113.386C86.8388 113.386 77.2395 110.461 69.164 105.005C68.7499 104.727 68.3383 104.441 67.9346 104.147C61.8998 99.7886 56.9979 94.1182 53.6206 87.5893C50.2433 81.0605 48.4844 73.8541 48.4844 66.5464C48.4844 59.2387 50.2433 52.0324 53.6206 45.5035C56.9979 38.9746 61.8998 33.3042 67.9346 28.9458C68.3383 28.6521 68.7499 28.366 69.164 28.0875C77.2395 22.6314 86.8388 19.707 96.6736 19.707C106.508 19.707 116.108 22.6314 124.183 28.0875C124.597 28.366 125.009 28.6521 125.413 28.9458C131.451 33.3004 136.356 38.97 139.734 45.4997C143.112 52.0295 144.868 59.2377 144.863 66.5464Z" fill="#B6B6B6"/>
<path d="M96.6738 109.333C120.986 109.333 140.695 90.1757 140.695 66.5443C140.695 42.9129 120.986 23.7559 96.6738 23.7559C72.3614 23.7559 52.6523 42.9129 52.6523 66.5443C52.6523 90.1757 72.3614 109.333 96.6738 109.333Z" fill="white"/>
<path opacity="0.2" d="M96.7884 23.877C96.121 23.877 95.4578 23.8939 94.7977 23.9225C105.924 24.8728 116.262 29.8984 123.719 37.9812C131.175 46.064 135.192 56.5995 134.955 67.4533C134.718 78.307 130.245 88.6674 122.442 96.4354C114.64 104.203 104.091 108.798 92.9336 109.289C94.2042 109.396 95.4892 109.454 96.7884 109.454C108.464 109.454 119.661 104.946 127.916 96.9213C136.172 88.897 140.81 78.0136 140.81 66.6654C140.81 55.3172 136.172 44.4338 127.916 36.4094C119.661 28.385 108.464 23.877 96.7884 23.877Z" fill="black"/>
<path d="M96.8037 20.7188C96.424 20.7194 96.06 20.8663 95.7914 21.1273C95.5229 21.3883 95.3718 21.7422 95.3711 22.1113V28.1877C95.3711 28.5571 95.522 28.9112 95.7907 29.1724C96.0594 29.4335 96.4238 29.5803 96.8037 29.5803C97.1837 29.5803 97.5481 29.4335 97.8168 29.1724C98.0855 28.9112 98.2364 28.5571 98.2364 28.1877V22.1113C98.2357 21.7422 98.0846 21.3883 97.816 21.1273C97.5475 20.8663 97.1835 20.7194 96.8037 20.7188Z" fill="#888888"/>
<path d="M125.413 28.9452C125.009 28.6515 124.598 28.3654 124.184 28.0869C123.935 28.0712 123.687 28.1187 123.463 28.2248C123.239 28.331 123.047 28.492 122.907 28.692L119.388 33.7127C119.174 34.0179 119.094 34.3932 119.165 34.7559C119.236 35.1187 119.452 35.4392 119.766 35.6471C120.08 35.8549 120.466 35.933 120.839 35.8641C121.212 35.7953 121.542 35.5851 121.756 35.2799L125.275 30.2593C125.409 30.0688 125.492 29.8488 125.516 29.6193C125.54 29.3898 125.505 29.1581 125.413 28.9452Z" fill="#888888"/>
<path d="M141.402 51.8389C141.331 51.6697 141.227 51.5156 141.095 51.3855C140.963 51.2555 140.806 51.152 140.632 51.081C140.459 51.01 140.273 50.9729 140.085 50.9717C139.897 50.9706 139.711 51.0054 139.537 51.0743L133.744 53.3606C133.392 53.4998 133.112 53.769 132.964 54.1091C132.817 54.4492 132.814 54.8323 132.957 55.1742C133.1 55.5161 133.377 55.7889 133.726 55.9326C134.076 56.0763 134.47 56.0792 134.822 55.9405L140.615 53.6543C140.967 53.5143 141.247 53.2448 141.394 52.9045C141.542 52.5643 141.544 52.1811 141.402 51.8389Z" fill="#888888"/>
<path d="M73.9602 33.7127L70.4411 28.692C70.3009 28.492 70.1094 28.331 69.8856 28.2248C69.6617 28.1187 69.4133 28.0712 69.1648 28.0869C68.7506 28.3654 68.339 28.6515 67.9353 28.9452C67.8438 29.1581 67.8084 29.3898 67.8326 29.6193C67.8567 29.8488 67.9394 30.0688 68.0733 30.2593L71.5925 35.2799C71.8063 35.5851 72.1361 35.7953 72.5093 35.8641C72.8825 35.933 73.2686 35.8549 73.5825 35.6471C73.8965 35.4392 74.1127 35.1187 74.1835 34.7559C74.2544 34.3932 74.174 34.0179 73.9602 33.7127Z" fill="#888888"/>
<path d="M59.6044 53.3603L53.8113 51.074C53.4593 50.9351 53.065 50.9377 52.7151 51.0814C52.3651 51.225 52.0882 51.4979 51.9452 51.84C51.8022 52.182 51.8049 52.5653 51.9526 52.9055C52.1003 53.2457 52.381 53.5149 52.7329 53.6539L58.526 55.9402C58.8779 56.0788 59.2721 56.0759 59.6218 55.9322C59.9715 55.7885 60.2482 55.5157 60.3912 55.1738C60.5341 54.8319 60.5315 54.4488 60.384 54.1088C60.2365 53.7687 59.9561 53.4995 59.6044 53.3603Z" fill="#888888"/>
<path d="M96.8037 103.511C96.424 103.511 96.06 103.658 95.7914 103.919C95.5229 104.18 95.3718 104.534 95.3711 104.903V110.98C95.3711 111.349 95.522 111.703 95.7907 111.964C96.0594 112.226 96.4238 112.372 96.8037 112.372C97.1837 112.372 97.5481 112.226 97.8168 111.964C98.0855 111.703 98.2364 111.349 98.2364 110.98V104.903C98.2357 104.534 98.0846 104.18 97.816 103.919C97.5475 103.658 97.1835 103.511 96.8037 103.511Z" fill="#888888"/>
<path d="M125.275 102.833L121.756 97.8127C121.65 97.6616 121.515 97.5322 121.357 97.432C121.2 97.3317 121.024 97.2626 120.839 97.2285C120.654 97.1944 120.464 97.1961 120.28 97.2333C120.096 97.2705 119.921 97.3427 119.766 97.4456C119.61 97.5485 119.477 97.6801 119.374 97.833C119.271 97.9859 119.2 98.1571 119.165 98.3367C119.13 98.5163 119.131 98.7009 119.17 98.8799C119.208 99.0589 119.282 99.2288 119.388 99.3799L122.907 104.401C123.047 104.601 123.239 104.762 123.463 104.868C123.687 104.974 123.935 105.021 124.184 105.006C124.598 104.727 125.009 104.441 125.413 104.147C125.505 103.935 125.54 103.703 125.516 103.473C125.492 103.244 125.409 103.024 125.275 102.833Z" fill="#888888"/>
<path d="M140.614 79.4384L134.821 77.1521C134.469 77.0132 134.075 77.0158 133.725 77.1595C133.375 77.3031 133.098 77.576 132.955 77.9181C132.812 78.2602 132.815 78.6434 132.962 78.9836C133.11 79.3238 133.391 79.593 133.743 79.7321L139.536 82.0183C139.888 82.1569 140.282 82.1541 140.632 82.0104C140.981 81.8667 141.258 81.5939 141.401 81.252C141.544 80.91 141.541 80.527 141.394 80.1869C141.246 79.8468 140.966 79.5776 140.614 79.4384Z" fill="#888888"/>
<path d="M73.5825 97.4445C73.2685 97.2367 72.8825 97.1587 72.5093 97.2276C72.1361 97.2964 71.8063 97.5065 71.5925 97.8116L68.0733 102.832C67.9394 103.023 67.8567 103.243 67.8326 103.472C67.8084 103.702 67.8438 103.933 67.9353 104.146C68.339 104.44 68.7506 104.726 69.1648 105.005C69.4133 105.02 69.6617 104.973 69.8856 104.867C70.1094 104.761 70.3009 104.6 70.4411 104.399L73.9602 99.3788C74.0661 99.2277 74.1403 99.0578 74.1787 98.8788C74.217 98.6998 74.2187 98.5152 74.1836 98.3356C74.1485 98.156 74.0774 97.9848 73.9742 97.8319C73.8711 97.679 73.738 97.5474 73.5825 97.4445Z" fill="#888888"/>
<path d="M60.3911 77.9171C60.3203 77.7478 60.216 77.5937 60.0839 77.4637C59.9519 77.3336 59.7948 77.2301 59.6216 77.1591C59.4484 77.0881 59.2625 77.051 59.0745 77.0498C58.8865 77.0487 58.7002 77.0836 58.526 77.1524L52.7329 79.4387C52.3813 79.5779 52.1009 79.8472 51.9534 80.1872C51.8058 80.5273 51.8033 80.9104 51.9462 81.2523C52.0891 81.5942 52.3658 81.867 52.7156 82.0107C53.0653 82.1544 53.4594 82.1573 53.8113 82.0187L59.6044 79.7324C59.9559 79.5925 60.236 79.3229 60.3835 78.9826C60.5309 78.6424 60.5337 78.2593 60.3911 77.9171Z" fill="#888888"/>
<path d="M98.6632 65.8545C98.7955 66.6157 98.6118 67.3968 98.1523 68.0264C97.6929 68.6561 96.9952 69.0829 96.2124 69.2132L70.7899 73.4164C70.402 73.4805 70.005 73.4698 69.6215 73.3848C69.238 73.2997 68.8754 73.1421 68.5546 72.9209C68.2337 72.6997 67.9608 72.4193 67.7514 72.0955C67.5421 71.7718 67.4004 71.4112 67.3344 71.0342C67.2684 70.6573 67.2795 70.2714 67.367 69.8986C67.4544 69.5258 67.6166 69.1734 67.8442 68.8616C68.0717 68.5497 68.3603 68.2844 68.6933 68.0809C69.0264 67.8774 69.3974 67.7397 69.7852 67.6756L95.2078 63.4724C95.9909 63.3438 96.7945 63.5224 97.4423 63.969C98.0901 64.4156 98.5292 65.0937 98.6632 65.8545Z" fill="#333333"/>
<path d="M125.419 93.2324C125.054 93.5894 124.558 93.791 124.04 93.793C123.522 93.795 123.024 93.5972 122.656 93.243L95.2893 66.8511C94.922 66.4963 94.7147 66.0143 94.7129 65.511C94.7111 65.0077 94.915 64.5242 95.2797 64.1669C95.6444 63.8096 96.1401 63.6077 96.6579 63.6055C97.1757 63.6033 97.6733 63.801 98.0412 64.1551L125.408 90.547C125.776 90.9019 125.983 91.384 125.985 91.8875C125.987 92.3909 125.784 92.8746 125.419 93.2324Z" fill="#333333"/>
<path d="M96.6734 69.8367C98.5436 69.8367 100.06 68.3631 100.06 66.5453C100.06 64.7275 98.5436 63.2539 96.6734 63.2539C94.8032 63.2539 93.2871 64.7275 93.2871 66.5453C93.2871 68.3631 94.8032 69.8367 96.6734 69.8367Z" fill="#F6CF0A"/>
<path d="M73.3495 9.47288C68.1516 17.416 60.2208 22.6873 50.4401 26.1503C50.2469 26.291 50.027 26.3934 49.793 26.4514C49.5591 26.5095 49.3156 26.5223 49.0766 26.4889C48.8376 26.4556 48.6077 26.3768 48.4 26.2571C48.1923 26.1374 48.0109 25.9791 47.8662 25.7912C42.5534 18.8963 43.753 9.04219 50.7648 3.77371C52.4599 2.50218 54.3981 1.57062 56.4667 1.03311C58.5353 0.495606 60.6932 0.362854 62.815 0.642568C64.9369 0.922282 66.9804 1.60889 68.827 2.66253C70.6736 3.71616 72.2865 5.11585 73.572 6.78031L73.719 6.97102C73.8637 7.15887 73.969 7.3726 74.0287 7.59999C74.0885 7.82739 74.1016 8.064 74.0673 8.29632C74.033 8.52864 73.9519 8.75212 73.8288 8.954C73.7056 9.15587 73.5427 9.33219 73.3495 9.47288Z" fill="#F6CF0A"/>
<path d="M119.776 6.78031C121.061 5.11584 122.674 3.71616 124.521 2.66252C126.367 1.60889 128.411 0.922283 130.533 0.642569C132.654 0.362855 134.812 0.495603 136.881 1.03311C138.95 1.57062 140.888 2.50218 142.583 3.7737C149.595 9.04219 150.794 18.8963 145.482 25.7912C145.337 25.9791 145.155 26.1374 144.948 26.2571C144.74 26.3768 144.51 26.4556 144.271 26.4889C144.032 26.5223 143.789 26.5095 143.555 26.4514C143.321 26.3933 143.101 26.291 142.908 26.1503C133.828 22.7715 126.382 16.9244 119.998 9.47288C119.608 9.18873 119.35 8.7655 119.28 8.29631C119.211 7.82712 119.336 7.3504 119.629 6.97101L119.776 6.78031Z" fill="#F6CF0A"/>
<path d="M117.498 113.706C117.167 113.887 116.923 114.188 116.82 114.543C116.716 114.898 116.762 115.279 116.947 115.601L125.215 129.962C125.401 130.285 125.711 130.522 126.076 130.622C126.442 130.722 126.833 130.678 127.165 130.497C127.497 130.317 127.741 130.016 127.844 129.661C127.947 129.305 127.901 128.925 127.716 128.602L119.448 114.241C119.262 113.919 118.952 113.682 118.586 113.582C118.221 113.481 117.829 113.526 117.498 113.706Z" fill="#E6E6E6"/>
<path d="M73.9007 114.241L65.6325 128.602C65.447 128.925 65.4009 129.305 65.5042 129.661C65.6074 130.016 65.8517 130.317 66.1832 130.497C66.5148 130.678 66.9064 130.723 67.272 130.622C67.6376 130.522 67.9473 130.285 68.1329 129.963L76.4011 115.601C76.493 115.442 76.5517 115.266 76.5738 115.084C76.5959 114.903 76.5809 114.719 76.5298 114.543C76.4787 114.367 76.3924 114.202 76.2759 114.058C76.1594 113.915 76.0149 113.795 75.8507 113.706C75.6865 113.616 75.5058 113.559 75.3189 113.538C75.132 113.516 74.9426 113.531 74.7616 113.581C74.5805 113.63 74.4113 113.714 74.2635 113.828C74.1158 113.941 73.9925 114.081 73.9007 114.241Z" fill="#E6E6E6"/>
<path d="M126.89 133.64C129.336 133.64 131.318 131.713 131.318 129.335C131.318 126.958 129.336 125.031 126.89 125.031C124.444 125.031 122.462 126.958 122.462 129.335C122.462 131.713 124.444 133.64 126.89 133.64Z" fill="#E6E6E6"/>
<path d="M130.016 23.5048C132.462 23.5048 134.444 21.5778 134.444 19.2006C134.444 16.8235 132.462 14.8965 130.016 14.8965C127.57 14.8965 125.588 16.8235 125.588 19.2006C125.588 21.5778 127.57 23.5048 130.016 23.5048Z" fill="#E6E6E6"/>
<path d="M96.4135 13.3759C98.8592 13.3759 100.842 11.4489 100.842 9.07174C100.842 6.69462 98.8592 4.76758 96.4135 4.76758C93.9679 4.76758 91.9854 6.69462 91.9854 9.07174C91.9854 11.4489 93.9679 13.3759 96.4135 13.3759Z" fill="#E6E6E6"/>
<path d="M64.3745 22.998C66.8201 22.998 68.8027 21.0709 68.8027 18.6938C68.8027 16.3167 66.8201 14.3896 64.3745 14.3896C61.9289 14.3896 59.9463 16.3167 59.9463 18.6938C59.9463 21.0709 61.9289 22.998 64.3745 22.998Z" fill="#E6E6E6"/>
<path d="M67.2397 133.64C69.6853 133.64 71.6679 131.713 71.6679 129.335C71.6679 126.958 69.6853 125.031 67.2397 125.031C64.7941 125.031 62.8115 126.958 62.8115 129.335C62.8115 131.713 64.7941 133.64 67.2397 133.64Z" fill="#E6E6E6"/>
<path d="M123.416 90.8114C123.591 91.077 123.823 91.3022 124.097 91.4712C124.371 91.6401 124.679 91.7486 125.001 91.7891C125.322 91.8296 125.649 91.801 125.958 91.7055C126.267 91.6099 126.551 91.4496 126.789 91.2359L133.738 94.8548L133.365 90.8896L126.824 88.0609C126.428 87.6954 125.908 87.4838 125.362 87.4661C124.817 87.4483 124.283 87.6258 123.863 87.9649C123.443 88.3039 123.166 88.7809 123.083 89.3055C123.001 89.8302 123.119 90.3659 123.416 90.8114Z" fill="#FFB7B7"/>
<path d="M128.479 92.1954L131.202 88.542L144.32 94.5695L160.644 91.5924C161.451 91.4453 162.281 91.4726 163.076 91.6725C163.871 91.8723 164.61 92.2398 165.243 92.7488C165.875 93.2578 166.384 93.8958 166.734 94.6176C167.084 95.3394 167.266 96.1272 167.268 96.9252C167.269 98.3664 166.682 99.7493 165.635 100.77C164.589 101.791 163.168 102.367 161.686 102.371L142.979 102.405L128.479 92.1954Z" fill="#C31C4A"/>
<path d="M124.285 155.296L121.53 154.015L125.315 142.822L129.381 144.713L124.285 155.296Z" fill="#FFB7B7"/>
<path d="M142.756 153.491C142.555 153.613 142.355 153.733 142.152 153.853C141.75 154.093 141.343 154.329 140.936 154.561C140.732 154.677 140.525 154.793 140.321 154.907V154.913L140.309 154.915L140.305 154.917L139.993 154.992L139.546 153.843L139.34 153.314L139.048 152.565L138.514 151.194L135.701 143.975L140.074 142.927L140.238 143.578H140.24L140.321 143.9L141.849 149.923L142.161 151.154L142.171 151.192L142.359 151.927L142.521 152.565L142.701 153.277L142.756 153.491Z" fill="#FFB7B7"/>
<path d="M168.842 128.14C168.565 128.573 168.281 129.004 167.996 129.431C167.466 130.225 166.922 131.008 166.363 131.779C166.363 131.781 166.361 131.781 166.359 131.783C166.033 132.077 165.673 132.332 165.287 132.544C165.27 132.556 165.252 132.564 165.236 132.574C164.951 132.727 164.648 132.845 164.333 132.926C164.22 132.954 164.105 132.981 163.991 133.009C163.583 133.103 163.178 133.184 162.775 133.254C162.059 133.378 161.351 133.467 160.646 133.522C160.59 133.528 160.533 133.532 160.476 133.536C157.581 133.742 154.762 133.41 151.819 132.865C150.366 132.597 148.883 132.277 147.347 131.944C146.845 131.834 146.341 131.726 145.831 131.618C145.793 131.61 145.753 131.6 145.712 131.592C144.984 131.437 144.243 131.284 143.484 131.132C142.529 130.941 141.543 130.756 140.519 130.581L140.592 131.984C140.653 133.063 140.884 134.126 141.276 135.137C141.713 136.38 142.059 137.363 141.329 139.411L140.977 140.402C141.159 140.895 141.222 141.421 141.16 141.941C141.098 142.461 140.912 142.959 140.619 143.398L140.548 143.502L143.484 150.723L143.674 151.191H142.171L140.321 151.193H137.187L132.664 142.373L132.447 141.952V141.931L132.915 124.982C132.921 124.832 132.933 124.681 132.953 124.531C133.036 123.852 133.256 123.195 133.603 122.599C133.949 122.003 134.414 121.481 134.971 121.061C135.504 120.656 136.115 120.358 136.767 120.185C137.42 120.011 138.102 119.966 138.773 120.05L140.321 120.245L143.484 120.642L145.712 120.924L145.757 120.93L152.327 121.756L152.799 119.887L152.886 119.856L155.652 118.87L165.22 115.462L165.244 115.454L165.873 115.229L165.948 115.347C165.971 115.383 165.993 115.418 166.013 115.454C166.635 116.538 167.142 117.68 167.525 118.864C168.169 120.798 168.699 122.767 169.113 124.759C169.131 124.846 169.148 124.925 169.162 124.995L169.168 125.017C169.174 125.05 169.178 125.072 169.18 125.078C169.401 125.971 169.247 127.061 168.842 128.14Z" fill="#333333"/>
<path d="M169.246 121.895C169.216 121.77 169.177 121.642 169.137 121.518C168.816 120.579 168.441 119.659 168.016 118.76C167.538 117.737 166.966 116.642 166.284 115.456C165.954 114.881 165.599 114.284 165.219 113.664C165.029 113.353 164.831 113.036 164.626 112.714C164.618 112.699 164.609 112.685 164.6 112.671L164.541 112.576L155.075 113.807L151.55 114.266L151.339 115.973L151.289 116.396C151.287 116.396 151.287 116.396 151.289 116.398L151.147 117.551V117.553L150.959 119.075L150.943 119.073L145.711 118.414L140.321 117.735L137.425 117.372C136.754 117.287 136.072 117.332 135.419 117.506C134.766 117.679 134.156 117.977 133.622 118.383C133.066 118.802 132.601 119.325 132.255 119.92C131.908 120.516 131.687 121.173 131.605 121.852C131.587 121.99 131.574 122.132 131.568 122.271L128.837 128.563C127.202 132.326 126.161 136.308 125.748 140.373L123.745 146.598L124.03 146.624L128.276 147.007L129.397 147.11L131.866 143.607C132.147 143.207 132.414 142.796 132.663 142.375C133.073 141.688 133.437 140.976 133.754 140.243L139.094 127.891C139.507 127.96 139.916 128.025 140.321 128.087C142.192 128.382 143.989 128.623 145.711 128.809C151.311 129.417 156.159 129.464 160.476 128.949C161.688 128.805 162.86 128.617 163.991 128.382C164.406 128.298 164.815 128.207 165.219 128.109C165.314 128.087 165.407 128.066 165.5 128.042C166.337 127.833 167.106 127.422 167.737 126.849C168.368 126.276 168.841 125.558 169.113 124.761C169.437 123.838 169.483 122.844 169.246 121.895Z" fill="#333333"/>
<path d="M125.165 153.468L122.184 152.08L121.717 151.861L120.97 153.643L115.757 154.759C115.499 154.814 115.267 154.947 115.092 155.14C114.918 155.333 114.812 155.574 114.79 155.83C114.767 156.086 114.829 156.341 114.967 156.56C115.104 156.779 115.311 156.949 115.555 157.046L120.648 159.066L122.265 157.652L121.869 159.55L123.787 160.311L125.889 153.807L125.165 153.468Z" fill="#333333"/>
<path d="M143.484 150.724L143.675 151.192H143.484V150.724Z" fill="#333333"/>
<path d="M142.446 151.292L139.322 152.344L138.832 152.509L139.591 154.286L136.695 158.643C136.551 158.858 136.482 159.113 136.498 159.369C136.514 159.625 136.614 159.869 136.783 160.066C136.952 160.263 137.181 160.403 137.437 160.464C137.693 160.525 137.963 160.505 138.207 160.407L143.288 158.359L143.414 156.248L144.506 157.868L146.42 157.097L143.205 151.037L142.446 151.292Z" fill="#333333"/>
<path d="M168.467 124.745C168.281 124.744 168.099 124.7 167.935 124.616L151.453 116.245L151.262 115.488L150.903 113.089L150.908 113.067L152.476 106.043C152.447 105.982 152.387 105.884 152.319 105.772C151.619 104.619 149.49 101.112 153.554 96.2822L160.69 88.1956L166.815 87.9395L166.885 88.025C168.522 90.0229 169.627 92.3832 170.1 94.896C170.573 97.4088 170.4 99.9962 169.596 102.428L168.959 113.623L169.643 115.884C170.042 117.213 169.976 118.633 169.455 119.921L169.611 123.582C169.617 123.732 169.592 123.882 169.538 124.022C169.483 124.163 169.4 124.291 169.293 124.399C169.186 124.508 169.058 124.594 168.916 124.654C168.774 124.713 168.621 124.744 168.467 124.745Z" fill="#C31C4A"/>
<path d="M154.17 133.976C154.449 133.816 154.689 133.598 154.872 133.338C155.055 133.077 155.178 132.781 155.231 132.47C155.283 132.159 155.265 131.841 155.178 131.537C155.09 131.234 154.935 130.953 154.724 130.714L158.687 124.09L154.597 124.314L151.461 130.57C151.071 130.942 150.835 131.439 150.798 131.969C150.761 132.498 150.925 133.023 151.259 133.443C151.593 133.862 152.074 134.149 152.61 134.247C153.147 134.345 153.702 134.249 154.17 133.976Z" fill="#FFB7B7"/>
<path d="M155.769 129.108L152.107 126.335L158.761 113.802L156.268 97.842C156.145 97.053 156.202 96.2474 156.435 95.4823C156.668 94.7172 157.072 94.0114 157.617 93.4149C158.162 92.8185 158.836 92.346 159.59 92.0311C160.345 91.7162 161.161 91.5665 161.981 91.5928C163.463 91.6418 164.865 92.2603 165.878 93.3124C166.892 94.3645 167.434 95.7645 167.387 97.205L166.771 115.378L155.769 129.108Z" fill="#C31C4A"/>
<path d="M156.762 84.8354V78.9446C156.76 76.8511 157.615 74.8428 159.137 73.3615C160.659 71.8802 162.724 71.0472 164.878 71.0459C167.031 71.0446 169.098 71.8749 170.622 73.3543C172.146 74.8337 173.002 76.8409 173.004 78.9344V78.9446C174.435 81.8437 173.54 83.222 173.004 84.8354C173.003 85.1163 172.888 85.3856 172.684 85.5843C172.48 85.783 172.202 85.8948 171.913 85.8952H157.853C157.564 85.8949 157.286 85.7832 157.082 85.5845C156.877 85.3858 156.762 85.1164 156.762 84.8354Z" fill="#333333"/>
<path d="M162.221 85.5126C165.578 85.5126 168.299 82.8672 168.299 79.6039C168.299 76.3407 165.578 73.6953 162.221 73.6953C158.863 73.6953 156.142 76.3407 156.142 79.6039C156.142 82.8672 158.863 85.5126 162.221 85.5126Z" fill="#FFB7B7"/>
<path d="M168.582 81.1525C168.527 81.144 168.472 81.1327 168.417 81.1243C167.469 80.9608 166.52 80.8002 165.575 80.6339L165.488 78.551L164.343 80.4168C161.73 81.2596 159.286 80.7832 156.986 79.7319C156.228 79.3819 155.492 78.9876 154.782 78.551C154.975 77.399 155.431 76.3036 156.116 75.3448C156.801 74.3861 157.697 73.5883 158.74 73.0098C158.827 72.9618 158.911 72.9196 158.998 72.8773L159 72.8771L159.001 72.8765L159.001 72.8755L159.001 72.8744C159.149 72.8068 159.3 72.742 159.451 72.6828C160.631 72.2344 161.919 72.1208 163.163 72.3553C164.407 72.5898 165.557 73.1627 166.48 74.0075C168.336 75.7296 169.171 78.5735 168.582 81.1525Z" fill="#333333"/>
</g>
<defs>
<clipPath id="clip0_9316_87040">
<rect width="224" height="161" fill="white" transform="translate(0 0.5)"/>
</clipPath>
</defs>
</svg>
