<svg width="224" height="160" viewBox="0 0 224 160" fill="none" xmlns="http://www.w3.org/2000/svg">
<path d="M202.832 159.238H155.336V157.793C155.336 156.538 155.839 155.335 156.734 154.448C157.629 153.561 158.842 153.062 160.108 153.062H198.061C199.326 153.062 200.54 153.561 201.435 154.448C202.329 155.335 202.832 156.538 202.832 157.793V159.238Z" fill="#E6E6E6"/>
<path d="M178.46 153.239L179.91 152.679C164.735 116.577 166.197 71.0315 179.025 31.9613C180.548 27.4345 180.658 22.5795 179.341 17.9936C178.023 13.4077 175.336 9.29092 171.609 6.14981C164.163 -0.218509 153.898 -1.76989 144.818 2.10068C135.855 5.92186 134.62 12.5778 134.62 19.2013H136.184C136.184 12.131 137.76 6.75005 145.454 3.47003C153.964 -0.157405 163.587 1.29756 170.568 7.26815C174.068 10.2183 176.592 14.0849 177.83 18.3922C179.067 22.6995 178.964 27.2595 177.533 31.5113C164.557 71.0326 163.181 116.891 178.46 153.239Z" fill="#E6E6E6"/>
<path d="M135.482 38.0448C138.492 38.0448 140.932 35.6256 140.932 32.6413C140.932 29.657 138.492 27.2378 135.482 27.2378C132.471 27.2378 130.031 29.657 130.031 32.6413C130.031 35.6256 132.471 38.0448 135.482 38.0448Z" fill="#F6CF0A"/>
<path d="M127.088 42.0616V31.8232H128.694V42.0616C129.155 42.2463 129.536 42.5841 129.773 43.0171C130.01 43.45 130.088 43.9513 129.993 44.4348C129.898 44.9183 129.636 45.3541 129.253 45.6673C128.869 45.9806 128.388 46.152 127.891 46.152C127.394 46.152 126.913 45.9806 126.529 45.6673C126.146 45.3541 125.884 44.9183 125.789 44.4348C125.695 43.9513 125.772 43.45 126.009 43.0171C126.246 42.5841 126.628 42.2463 127.088 42.0616Z" fill="#E6E6E6"/>
<path d="M119.326 23.9563C119.329 21.6027 120.273 19.3463 121.952 17.6821C123.63 16.0179 125.906 15.0818 128.28 15.0791H143.074C145.449 15.0791 147.726 16.0144 149.406 17.6792C151.085 19.344 152.028 21.6019 152.028 23.9563C152.028 26.3106 151.085 28.5686 149.406 30.2334C147.726 31.8982 145.449 32.8335 143.074 32.8335H128.28C125.906 32.8308 123.63 31.8946 121.952 30.2304C120.273 28.5662 119.329 26.3098 119.326 23.9563Z" fill="#C31C4A"/>
<path d="M98.4819 78.9308C99.9673 60.0909 107.562 51.1146 102.699 45.4855C98.0409 40.0934 84.9202 41.2073 76.4938 46.3813C53.7661 60.3369 45.4395 115.958 74.6866 143.134C102.479 168.957 155.151 160.687 166.856 139.55C169.587 134.619 171.757 125.973 167.76 120.737C157.835 107.738 121.753 131.283 105.711 116.557C96.2036 107.829 97.6668 89.2701 98.4819 78.9308Z" fill="#888888"/>
<path d="M115.855 69.5713C115.303 69.823 114.872 70.2784 114.653 70.8405C114.434 71.4026 114.446 72.027 114.685 72.581C114.735 72.6928 114.794 72.8003 114.863 72.9024L109.984 79.36L112.419 82.967L118.136 73.4046C118.542 73.0914 118.831 72.654 118.959 72.1607C119.087 71.6675 119.047 71.1461 118.844 70.6779C118.727 70.4126 118.557 70.1729 118.346 69.9724C118.135 69.772 117.886 69.6147 117.614 69.5096C117.341 69.4045 117.051 69.3536 116.758 69.3599C116.466 69.3662 116.178 69.4294 115.91 69.5461C115.892 69.5542 115.873 69.5626 115.855 69.5713Z" fill="#FFB6B6"/>
<path d="M115.851 80.7037C116.17 80.9844 115.285 81.3308 114.348 80.7843C114.08 80.6261 113.965 80.5604 113.935 80.6022C113.86 80.7067 114.3 81.4771 114.182 83.1882C114.11 84.2095 112.399 86.1296 110.456 88.0019C107.83 90.5342 104.775 92.9769 104.775 92.9769L103.703 92.1259L92.4591 83.1882L90.5615 80.5842C90.7353 79.5559 90.9963 78.544 91.3417 77.5592C91.8174 76.1961 92.3829 74.8654 93.0344 73.5756C93.3838 72.8739 93.7423 72.205 94.0857 71.5898L100.11 78.1714L105.158 83.6839C105.158 83.6839 106.628 81.3368 107.766 80.6977C107.912 80.6058 108.077 80.5495 108.248 80.5335C109.399 80.4797 109.468 79.8586 108.134 78.5059C106.8 77.1531 108.483 78.4163 109.67 78.052C110.857 77.6876 109.67 78.052 109.92 77.1412C110.17 76.2304 113.498 74.4028 113.498 74.4028L113.637 74.5253L116.152 76.7261L116.872 77.3562C116.872 77.3562 116.086 79.4943 115.869 79.9452C115.652 80.3961 115.535 80.42 115.851 80.7037Z" fill="#C31C4A"/>
<path d="M182.152 122.187L182.274 118.893L169.518 116.857L169.337 121.718L182.152 122.187Z" fill="#FFB6B6"/>
<path d="M179.837 123.178L179.716 117.905L181.99 117.988L185.661 113.112C185.843 112.871 186.097 112.694 186.387 112.607C186.677 112.519 186.987 112.526 187.273 112.626C187.559 112.726 187.805 112.914 187.976 113.162C188.146 113.411 188.232 113.707 188.221 114.007L187.988 120.272L185.698 121.27L187.932 121.774L187.844 124.136L179.837 123.178Z" fill="#333333"/>
<path d="M110.356 123.47L150.761 124.485C150.761 124.485 168.209 125.485 172.303 122.844L176.62 122.304L176.854 116.017C176.854 116.017 174.214 116.037 172.697 115.335C171.179 114.634 172.234 113.776 170.787 114.62C169.34 115.464 169.492 115.565 168.374 115.177C167.255 114.79 115.948 107.037 115.948 107.037L110.356 123.47Z" fill="#333333"/>
<path d="M163.599 120.741L165.949 118.409L157.994 108.315L154.526 111.757L163.599 120.741Z" fill="#FFB6B6"/>
<path d="M161.222 118.712L164.751 114.764L166.361 116.359L172.397 115.26C172.695 115.206 173.003 115.247 173.276 115.379C173.548 115.51 173.771 115.724 173.912 115.99C174.053 116.256 174.105 116.56 174.059 116.857C174.014 117.154 173.874 117.429 173.66 117.642L169.191 122.077L166.828 121.265L168.12 123.141L166.435 124.813L161.222 118.712Z" fill="#333333"/>
<path d="M94.416 101.531L94.8177 110.788C95.2906 121.686 107.396 128.281 116.783 122.591C116.956 122.486 117.129 122.378 117.303 122.265C117.303 122.265 120.862 121.318 120.754 119.818C120.646 118.317 121.515 117.587 122.285 117.996C123.054 118.405 133.127 104.233 133.127 104.233C133.127 104.233 154.055 114.582 158.672 117.019C158.672 117.019 163.013 110.29 162.698 110.36C162.384 110.431 136.807 92.6838 136.807 92.6838C136.807 92.6838 132.641 88.5031 127.472 91.2634C127.365 91.6689 127.457 91.683 127.457 91.683L110.383 105.476L107.97 100.934L94.416 101.531Z" fill="#333333"/>
<path d="M110.514 89.9587C110.482 90.3863 110.42 90.8113 110.33 91.2308C110.207 91.838 110.009 92.4278 109.74 92.9867C109.74 92.9867 109.74 93.6108 108.535 95.7011C107.33 97.7915 108.836 96.8956 109.74 98.4485C110.644 99.9983 109.74 99.2846 108.737 100.282C108.448 100.572 108.243 100.934 108.143 101.329C108.043 101.725 108.051 102.139 108.168 102.531C108.168 102.531 95.2278 102.54 92.8181 101.644C90.4085 100.748 89.8603 95.7012 92.0199 95.2025C94.1766 94.7038 91.3663 94.2081 90.0982 93.0584C88.8301 91.9087 91.3663 90.0274 91.3663 90.0274C91.3663 90.0274 90.3211 88.2387 90.4085 82.2334C90.4208 81.6811 90.4721 81.1303 90.5621 80.5851C90.7358 79.5568 90.9968 78.5448 91.3422 77.56C91.818 76.1969 92.3835 74.8662 93.035 73.5765C93.3844 72.8747 93.7428 72.2058 94.0862 71.5907C94.1404 71.4951 94.1916 71.4025 94.2459 71.3099C94.8995 70.1632 95.4959 69.2256 95.8904 68.6254C96.1947 68.1595 96.3784 67.8967 96.3784 67.8967L98.5712 64.1162L105.891 67.5175L105.475 73.0808L106.737 77.2763L107.318 79.2084L107.767 80.6985L108.46 83.0068C108.46 83.0068 108.27 83.0158 108.496 83.3234C109.536 84.6947 110.211 86.3042 110.457 88.0027C110.544 88.651 110.563 89.3065 110.514 89.9587Z" fill="#C31C4A"/>
<path d="M131.651 90.5585L131.514 90.5145L113.995 84.9217L120.451 63.9253C120.579 63.5071 120.802 63.1234 121.102 62.803C121.402 62.4826 121.771 62.2338 122.182 62.0755C122.593 61.9172 123.035 61.8534 123.474 61.889C123.913 61.9245 124.339 62.0585 124.719 62.2809L135.914 68.8382C136.8 69.3567 137.474 70.1675 137.818 71.1288C138.163 72.0901 138.156 73.1408 137.798 74.0973L131.651 90.5585Z" fill="#333333"/>
<path d="M131.723 91.893L114.063 86.2552L120.519 65.2588C120.647 64.8407 120.87 64.4569 121.17 64.1365C121.47 63.8161 121.839 63.5673 122.25 63.409C122.661 63.2507 123.103 63.1869 123.542 63.2225C123.982 63.258 124.407 63.392 124.787 63.6144L136.516 69.4203C138.279 70.4521 138.237 73.1229 137.419 75.3143L131.723 91.893Z" fill="#C31C4A"/>
<path d="M129.954 93.413C129.548 93.6405 129.098 93.7816 128.633 93.8274C128.168 93.8732 127.699 93.8228 127.255 93.6792L115.968 90.0754C115.102 89.7949 114.381 89.1898 113.959 88.3894C113.537 87.5889 113.447 86.6565 113.709 85.7914L119.368 67.3855C119.481 67.0178 119.667 66.6761 119.915 66.3806C120.163 66.0851 120.468 65.8416 120.812 65.6645C121.156 65.4874 121.533 65.3802 121.919 65.3492C122.306 65.3183 122.695 65.3641 123.063 65.484L134.76 69.2918C135.318 69.4732 135.833 69.7635 136.275 70.1455C136.717 70.5276 137.078 70.9936 137.335 71.5161C137.593 72.0386 137.742 72.607 137.775 73.1877C137.807 73.7684 137.721 74.3496 137.523 74.897L131.473 91.6208C131.201 92.3801 130.662 93.0166 129.954 93.413Z" fill="#333333"/>
<path d="M105.476 64.1808C109.941 64.1808 113.561 60.5923 113.561 56.1656C113.561 51.7389 109.941 48.1504 105.476 48.1504C101.011 48.1504 97.3916 51.7389 97.3916 56.1656C97.3916 60.5923 101.011 64.1808 105.476 64.1808Z" fill="#FFB6B6"/>
<path d="M78.1378 64.301C78.8796 65.7267 80.0962 66.8542 81.5809 67.4921C82.1734 67.7597 82.7965 67.9552 83.4364 68.0743C83.6173 67.3631 83.9069 66.6835 84.295 66.0592C84.1657 66.7629 84.1657 67.484 84.295 68.1877C85.27 68.2668 86.2509 68.1461 87.1767 67.8331C88.086 67.5265 88.9107 67.0141 89.5854 66.3364C90.2601 65.6588 90.7662 64.8346 91.0636 63.9292C91.7076 61.8046 91.014 59.5354 90.9593 57.3178C90.903 55.0999 91.9653 52.4472 94.1861 52.1728C95.8774 51.9635 95.6682 52.126 96.8835 53.3105C95.1836 55.1826 99.3277 63.4743 101.551 63.1079C102.809 62.9007 103.734 61.9112 103.982 61.9455C105.256 65.0369 101.426 69.4213 104.463 70.8606L104.238 70.5649C102.648 67.9606 107.353 63.5622 105.763 60.9579C105.319 60.2294 104.859 59.3753 105.133 58.5694C105.393 57.8031 106.711 57.5606 106.99 58.258C106.537 56.6595 107.8 54.7833 109.476 54.6202C110.965 54.4745 110.879 54.8954 112.299 55.2794C112.481 54.6729 112.742 54.0929 113.077 53.5543C112.964 54.1687 112.95 54.7971 113.035 55.4159C113.548 55.4765 114.066 55.3678 114.509 55.1066C115.82 54.3273 115.859 52.3156 114.959 51.0913C114.056 49.8667 112.545 49.2621 111.086 48.8045C111.073 45.747 102.775 44.2833 101.248 47.126C101.091 44.8243 98.43 43.2738 96.1375 43.6648C93.8449 44.0558 92.0363 45.8783 90.9337 47.9096C89.8312 49.9393 89.2839 52.2121 88.4768 54.3741C87.6697 56.536 86.5161 58.6918 84.5834 59.9746C82.6511 61.2557 79.7793 61.3721 78.1659 59.7116C77.7979 60.4206 77.6036 61.2056 77.5987 62.0029C77.5938 62.8003 77.7785 63.5876 78.1378 64.301Z" fill="#333333"/>
<path d="M26.3304 159.268C21.5996 158.384 17.412 137.254 26.7197 126.847C29.9086 123.282 33.8864 121.73 39.1776 120.286C69.6319 111.974 92.8599 119.896 95.9814 121.83C99.0959 123.76 104.556 152.837 97.5739 156.953C93.6455 159.268 85.8594 160.426 82.0016 157.725C76.3251 153.749 85.8531 143.437 81.6123 136.497C76.7998 128.62 51.4581 125.967 38.753 133.795C25.1979 142.146 53.1574 164.286 26.3304 159.268Z" fill="#F2F2F2"/>
<path d="M57.9593 123.343H39.8861C35.4245 119.104 32.2345 115.018 34.7885 111.627C34.7885 110.652 35.1791 109.717 35.8743 109.028C36.5696 108.339 37.5126 107.952 38.4958 107.952H59.3495C60.3328 107.952 61.2757 108.339 61.971 109.028C62.6662 109.717 63.0568 110.652 63.0568 111.627C64.0292 115.491 62.292 119.397 57.9593 123.343Z" fill="#CCCCCC"/>
<path d="M54.7137 103.325C54.5422 103.333 54.3724 103.288 54.2274 103.197C54.0823 103.106 53.969 102.973 53.9028 102.816C53.8366 102.659 53.8207 102.486 53.8572 102.32C53.8937 102.153 53.9808 102.002 54.1069 101.887L54.1643 101.66C54.1567 101.642 54.1491 101.624 54.1415 101.606C53.9687 101.202 53.6792 100.857 53.3094 100.615C52.9396 100.373 52.5058 100.245 52.0627 100.246C51.6196 100.248 51.1869 100.379 50.8189 100.624C50.4509 100.869 50.164 101.216 49.9943 101.621C49.316 103.241 48.4524 104.863 48.2397 106.576C48.1461 107.333 48.1856 108.1 48.3565 108.844C46.7633 105.398 45.9361 101.654 45.9307 97.8636C45.9304 96.9125 45.9837 95.9621 46.0904 95.0169C46.1786 94.2421 46.3009 93.4727 46.4574 92.7089C47.3113 88.5644 49.1446 84.6799 51.8068 81.3743C53.0953 80.6773 54.1374 79.6055 54.7925 78.3032C55.0298 77.8351 55.1976 77.3354 55.2905 76.8197C55.1452 76.8386 54.7425 74.6439 54.8521 74.5093C54.6495 74.2045 54.287 74.0531 54.0658 73.7557C52.9655 72.2768 51.4496 72.535 50.6583 74.5447C48.9678 75.3906 48.9514 76.7934 49.9887 78.1426C50.6486 79.0009 50.7393 80.1624 51.3183 81.0813C51.2588 81.1569 51.1968 81.2302 51.1372 81.3058C50.0483 82.694 49.0992 84.1847 48.3035 85.7565C48.497 83.9956 48.2661 82.2144 47.6297 80.5593C46.9848 79.0168 45.7759 77.7177 44.7114 76.3842C43.4327 74.7825 40.8106 75.4815 40.5853 77.5119C40.5831 77.5316 40.581 77.5512 40.5789 77.5709C40.737 77.6593 40.8918 77.7532 41.0433 77.8525C41.2335 77.9785 41.3809 78.1586 41.4662 78.3691C41.5515 78.5796 41.5706 78.8107 41.5211 79.0322C41.4716 79.2536 41.3558 79.4551 41.1888 79.6102C41.0219 79.7653 40.8115 79.8668 40.5854 79.9014L40.5622 79.9049C40.6186 80.4699 40.7181 81.0298 40.8601 81.5798C39.4944 86.8159 42.4428 88.723 46.6528 88.8086C46.7457 88.8559 46.8363 88.9031 46.9292 88.948C46.1298 91.194 45.6284 93.5334 45.4375 95.9075C45.3295 97.3082 45.3358 98.7152 45.4566 100.115L45.4494 100.065C45.1444 98.5089 44.307 97.1046 43.0785 96.0894C41.254 94.6035 38.6762 94.0563 36.7078 92.8619C36.4986 92.7288 36.2554 92.6577 36.0068 92.6571C35.7582 92.6565 35.5146 92.7264 35.3048 92.8585C35.0949 92.9907 34.9276 93.1796 34.8225 93.4029C34.7173 93.6262 34.6788 93.8747 34.7115 94.1191C34.7141 94.1364 34.7168 94.1538 34.7195 94.1712C35.013 94.2897 35.2987 94.4262 35.575 94.5799C35.7331 94.6683 35.8879 94.7622 36.0393 94.8615C36.2296 94.9875 36.377 95.1676 36.4622 95.3781C36.5475 95.5886 36.5667 95.8197 36.5172 96.0412C36.4677 96.2626 36.3519 96.4641 36.1849 96.6192C36.0179 96.7743 35.8076 96.8758 35.5815 96.9104L35.5583 96.9139C35.5416 96.9162 35.5273 96.9186 35.5106 96.921C36.012 98.1078 36.7157 99.2002 37.5908 100.15C38.4448 104.721 42.1124 105.155 46.0356 103.824H46.038C46.4684 105.678 47.0921 107.483 47.899 109.21H54.5471C54.5709 109.137 54.5924 109.061 54.6138 108.988C53.9985 109.026 53.3807 108.99 52.7743 108.879C53.2675 108.279 53.7607 107.674 54.254 107.074C54.265 107.063 54.2753 107.051 54.285 107.039C54.5352 106.732 54.7878 106.427 55.038 106.12L55.0381 106.12C55.0514 105.178 54.9422 104.239 54.7137 103.325Z" fill="#CCCCCC"/>
<path d="M77.3888 122.383C77.4991 122.701 77.7082 122.977 77.9862 123.17C78.2643 123.363 78.5969 123.463 78.9363 123.457L85.5664 123.288C85.9083 123.282 86.2389 123.166 86.5087 122.957C86.7785 122.749 86.973 122.46 87.0633 122.133L88.0015 112.186C88.3344 112.336 88.6968 112.41 89.0622 112.402C89.7033 112.386 90.3117 112.119 90.7536 111.658C91.1956 111.197 91.4348 110.581 91.4187 109.946C91.4026 109.31 91.1325 108.707 90.6678 108.269C90.2031 107.831 89.5819 107.593 88.9408 107.609C88.7948 107.609 88.6491 107.624 88.5063 107.654C88.351 107.488 88.1622 107.355 87.9521 107.265C87.742 107.175 87.5153 107.13 87.2865 107.132L77.0877 107.394C77.0031 107.397 76.9189 107.407 76.8361 107.424C76.6125 107.466 76.4003 107.554 76.214 107.684C76.0277 107.813 75.8715 107.981 75.7559 108.175C75.6404 108.369 75.5681 108.586 75.5441 108.81C75.52 109.034 75.5447 109.261 75.6165 109.475L77.3888 122.383ZM88.1939 111.511L88.8616 109.141C88.9375 108.867 88.9393 108.578 88.8667 108.303C88.8991 108.303 88.9277 108.288 88.9601 108.288C89.4178 108.279 89.8605 108.45 90.1913 108.763C90.522 109.077 90.7137 109.508 90.7245 109.962C90.7352 110.416 90.564 110.855 90.2484 111.184C89.9329 111.513 89.4987 111.704 89.041 111.716C88.7451 111.725 88.4522 111.654 88.1939 111.511Z" fill="#F6CF0A"/>
<path d="M76.8359 107.423C77.0532 108.655 79.4961 109.521 82.4335 109.37C85.1346 109.247 87.3432 108.307 87.7479 107.192C87.5981 107.148 87.4424 107.128 87.2863 107.131L77.0875 107.392C77.0029 107.395 76.9187 107.406 76.8359 107.423Z" fill="white"/>
<path d="M0.355079 159.734L223.645 159.825C223.739 159.825 223.829 159.788 223.896 159.722C223.963 159.656 224 159.567 224 159.473C224 159.38 223.963 159.29 223.896 159.224C223.829 159.158 223.739 159.121 223.645 159.121L0.355079 159.03C0.260906 159.03 0.170591 159.067 0.104 159.133C0.0374095 159.199 0 159.289 0 159.382C0 159.476 0.0374095 159.565 0.104 159.631C0.170591 159.697 0.260906 159.734 0.355079 159.734Z" fill="#CACACA"/>
<path d="M125.591 81.0596C124.984 81.0815 124.41 81.3376 123.99 81.7731C123.57 82.2087 123.338 82.7895 123.344 83.3919C123.347 83.5143 123.36 83.6363 123.384 83.7565L116.376 87.8582L117.224 92.1157L126.211 85.468C126.707 85.3333 127.143 85.0398 127.453 84.6332C127.762 84.2267 127.927 83.73 127.922 83.2207C127.916 82.931 127.853 82.6452 127.736 82.3796C127.619 82.1141 127.45 81.874 127.239 81.6732C127.028 81.4723 126.78 81.3145 126.508 81.2089C126.235 81.1033 125.945 81.0519 125.652 81.0576C125.632 81.058 125.612 81.0586 125.591 81.0596Z" fill="#FFB6B6"/>
<path d="M119.851 90.8375C119.663 90.5886 119.583 90.4844 119.54 90.513C119.431 90.5786 119.536 91.4582 118.764 92.9913C117.678 95.1452 106.286 98.4439 106.286 98.4439L104.883 95.8982L98.7137 84.7107L96.5872 75.7435C96.5129 75.4309 96.4767 75.1105 96.4797 74.7893C98.3756 73.4665 100.389 72.3175 102.495 71.3564C103.337 71.8297 103.978 72.5875 104.302 73.4912L108.549 85.2964L110.244 90.0098C110.244 90.0098 113.233 87.8906 114.318 88.2796C115.4 88.671 115.708 88.1222 115 86.3652C114.293 84.6083 115.355 86.4168 116.591 86.5318C117.829 86.6484 116.591 86.5317 117.176 85.7862C117.761 85.0407 121.543 84.6212 121.543 84.6212L121.623 84.7876L123.089 87.7768L123.509 88.6356C123.509 88.6356 121.955 90.307 121.58 90.6401C121.203 90.9757 121.087 90.9525 121.271 91.3348C121.453 91.7153 120.502 91.698 119.851 90.8375Z" fill="#C31C4A"/>
</svg>
