<svg width="176" height="147" viewBox="0 0 176 147" fill="none" xmlns="http://www.w3.org/2000/svg">
<path d="M82.668 146.666C121.056 146.666 152.176 145.08 152.176 143.124C152.176 141.167 121.056 139.581 82.668 139.581C44.2799 139.581 13.1602 141.167 13.1602 143.124C13.1602 145.08 44.2799 146.666 82.668 146.666Z" fill="#F2F2F2"/>
<path d="M123.277 34.0389H122.488V12.4786C122.488 9.16904 121.169 5.99507 118.821 3.65489C116.473 1.31471 113.288 3.65395e-06 109.968 0H64.1389C60.8184 -6.26387e-06 57.634 1.31469 55.2861 3.65486C52.9382 5.99503 51.6192 9.169 51.6191 12.4785V130.76C51.6191 134.07 52.9382 137.244 55.2861 139.584C57.634 141.924 60.8184 143.239 64.1388 143.239H109.968C113.288 143.239 116.473 141.924 118.821 139.584C121.169 137.244 122.488 134.07 122.488 130.76V49.3859H123.277L123.277 34.0389Z" fill="#333333"/>
<path d="M119.823 12.5663V130.674C119.823 133.146 118.838 135.516 117.085 137.264C115.331 139.011 112.953 139.993 110.473 139.993H64.4242C61.9444 139.993 59.5663 139.011 57.8128 137.264C56.0594 135.516 55.0743 133.146 55.0742 130.674V12.5663C55.0743 10.0947 56.0594 7.72436 57.8128 5.97667C59.5663 4.22898 61.9444 3.24712 64.4242 3.24707H70.0105C69.736 3.91939 69.6315 4.64864 69.7061 5.37068C69.7807 6.09272 70.0322 6.78541 70.4385 7.38783C70.8447 7.99025 71.3933 8.48394 72.0359 8.82546C72.6785 9.16699 73.3955 9.34589 74.1237 9.34642H100.379C101.107 9.34588 101.824 9.16698 102.467 8.82545C103.109 8.48393 103.658 7.99024 104.064 7.38782C104.47 6.7854 104.722 6.09271 104.796 5.37067C104.871 4.64864 104.766 3.91939 104.492 3.24707H110.473C112.953 3.24712 115.331 4.22898 117.085 5.97667C118.838 7.72436 119.823 10.0947 119.823 12.5663Z" fill="white"/>
<path d="M104.989 63.4928C104.683 63.6522 104.371 63.8031 104.055 63.9455C103.766 64.0754 103.473 64.1974 103.176 64.3116C103.067 64.3529 102.957 64.3942 102.846 64.4356C101.972 64.7516 101.074 64.9984 100.161 65.1736C99.7084 65.2622 99.2503 65.3317 98.7862 65.3823C98.4032 65.4256 98.0161 65.4564 97.6252 65.4748C97.3467 65.4885 97.0683 65.4944 96.7879 65.4944C95.6774 65.4949 94.5694 65.3914 93.4784 65.1854C93.194 65.1343 92.9156 65.0733 92.6371 65.0063C91.2903 64.6846 89.9865 64.205 88.753 63.5774C88.6424 63.5223 88.5318 63.4633 88.4212 63.4062C88.2573 63.3196 88.0975 63.2291 87.9375 63.1346C88.0144 63.0283 88.0975 62.924 88.1823 62.8217C89.1063 61.6803 90.2612 60.7459 91.5718 60.0793C92.8824 59.4126 94.3192 59.0287 95.7886 58.9526C97.258 58.8764 98.727 59.1098 100.1 59.6374C101.473 60.165 102.719 60.975 103.756 62.0147C104.117 62.375 104.451 62.7604 104.756 63.1681C104.837 63.2743 104.914 63.3826 104.989 63.4928Z" fill="#C31C4A"/>
<path d="M97.1814 54.8478C101.97 54.8478 105.852 50.9786 105.852 46.2056C105.852 41.4327 101.97 37.5635 97.1814 37.5635C92.3927 37.5635 88.5107 41.4327 88.5107 46.2056C88.5107 50.9786 92.3927 54.8478 97.1814 54.8478Z" fill="#333333"/>
<path d="M99.4871 54.8588C102.614 53.1549 103.764 49.2467 102.054 46.1297C100.345 43.0126 96.4236 41.8671 93.2963 43.571C90.169 45.2749 89.0196 49.1831 90.7292 52.3002C92.4387 55.4172 96.3598 56.5628 99.4871 54.8588Z" fill="#A0616A"/>
<path d="M103.173 45.1709C101.699 46.184 99.9482 46.7232 98.1572 46.716C98.7961 47.1575 99.5234 47.4558 100.289 47.5902C97.9078 48.0993 95.4467 48.1131 93.0598 47.6307C92.5293 47.5459 92.0174 47.3706 91.5465 47.1126C91.3118 46.982 91.1074 46.8036 90.9465 46.5891C90.7855 46.3746 90.6717 46.1287 90.6124 45.8674C90.4537 44.9643 91.1598 44.1438 91.8935 43.5908C93.0169 42.7571 94.3122 42.1827 95.6856 41.9092C97.0591 41.6356 98.4763 41.6698 99.8349 42.0092C100.722 42.2377 101.611 42.6239 102.187 43.3339C102.763 44.044 102.934 45.1387 102.385 45.8699L103.173 45.1709Z" fill="#333333"/>
<path d="M96.7875 30.0684C92.9117 30.0678 89.142 31.3303 86.0529 33.6635C82.9638 35.9966 80.7248 39.2725 79.6771 42.9918C78.6294 46.7111 78.8305 50.6698 80.2498 54.2646C81.669 57.8593 84.2285 60.893 87.5383 62.9033L87.6528 62.9702C87.7476 63.0273 87.8424 63.0824 87.9372 63.1355C88.0971 63.23 88.257 63.3205 88.4209 63.4071C88.5315 63.4642 88.6421 63.5233 88.7527 63.5784C89.9862 64.2059 91.29 64.6855 92.6368 65.0073C92.9152 65.0742 93.1936 65.1352 93.478 65.1864C94.5691 65.3924 95.6771 65.4958 96.7875 65.4954C97.0679 65.4954 97.3464 65.4895 97.6248 65.4757C98.0158 65.458 98.4028 65.4271 98.7859 65.3832C99.25 65.332 99.7081 65.2625 100.16 65.1745C101.074 64.9993 101.971 64.7525 102.846 64.4365C102.956 64.3952 103.067 64.3538 103.176 64.3125C103.474 64.1983 103.767 64.0763 104.054 63.9464C104.37 63.8047 104.682 63.6538 104.988 63.4937C108.062 61.8891 110.603 59.4298 112.302 56.4142C112.31 56.3985 112.32 56.3827 112.328 56.367C113.235 54.7455 113.878 52.9911 114.234 51.1691C114.733 48.604 114.657 45.9607 114.012 43.4282C113.367 40.8957 112.167 38.5368 110.5 36.5204C108.833 34.504 106.739 32.8799 104.368 31.7645C101.998 30.649 99.409 30.0698 96.7875 30.0684ZM112.004 56.1367C111.988 56.1643 111.975 56.1918 111.959 56.2174C110.293 59.1885 107.788 61.606 104.755 63.169C104.453 63.3264 104.146 63.4741 103.833 63.6118C103.574 63.7279 103.31 63.8382 103.043 63.9405C102.931 63.9838 102.816 64.0271 102.702 64.0665C101.946 64.3415 101.172 64.5625 100.385 64.7278C99.8016 64.8516 99.2117 64.9443 98.618 65.0053C98.2527 65.0447 97.8815 65.0722 97.5082 65.086C97.2693 65.0958 97.0285 65.1017 96.7875 65.1017C95.7129 65.103 94.6406 65.0035 93.5847 64.8045C92.9423 64.6864 92.3074 64.5314 91.683 64.34C90.732 64.0472 89.8078 63.6738 88.9205 63.2241C88.8178 63.171 88.7151 63.1178 88.6144 63.0627C88.4702 62.986 88.3242 62.9072 88.1819 62.8226C88.0753 62.7635 87.9687 62.7006 87.8641 62.6376C87.8028 62.6022 87.7416 62.5648 87.6804 62.5274C84.7785 60.7512 82.4638 58.1649 81.0232 55.0894C79.5827 52.0138 79.0798 48.5845 79.5769 45.2267C80.074 41.8689 81.5492 38.7304 83.8196 36.2007C86.0899 33.6709 89.0555 31.8612 92.3484 30.9961C95.6412 30.131 99.1165 30.2484 102.343 31.334C105.569 32.4195 108.405 34.4253 110.498 37.1026C112.592 39.7799 113.85 43.0107 114.118 46.3944C114.385 49.778 113.651 53.1656 112.004 56.1367Z" fill="#F6CF0A"/>
<path d="M92.7907 37.6831C92.6974 36.7053 91.4957 36.1033 90.5558 36.3987C89.616 36.694 88.999 37.6372 88.8125 38.6016C88.7227 39.0078 88.7143 39.4276 88.7877 39.8371C88.8611 40.2465 89.0148 40.6374 89.2401 40.9875C89.7151 41.669 90.5881 42.0942 91.4023 41.9212C92.3318 41.7238 92.9757 40.8192 93.16 39.8899C93.3442 38.9606 93.1613 38.0026 92.9786 37.073L92.7907 37.6831Z" fill="#333333"/>
<path d="M106.017 39.0795C105.924 38.1018 104.722 37.4998 103.782 37.7951C102.843 38.0905 102.226 39.0337 102.039 39.9981C101.949 40.4043 101.941 40.8241 102.014 41.2336C102.088 41.643 102.241 42.0339 102.467 42.384C102.942 43.0654 103.815 43.4907 104.629 43.3177C105.558 43.1203 106.202 42.2156 106.387 41.2864C106.571 40.3571 106.388 39.399 106.205 38.4695L106.017 39.0795Z" fill="#333333"/>
<path d="M66.0688 54.8601C65.9458 54.86 65.8242 54.8343 65.7118 54.7846C65.5994 54.735 65.4986 54.6625 65.4158 54.5719L55.6172 43.9175C55.506 43.7969 55.3709 43.7005 55.2205 43.6346C55.07 43.5686 54.9075 43.5345 54.7431 43.5343H2.96381C2.17803 43.5334 1.42469 43.2219 0.869055 42.6681C0.313423 42.1143 0.000882233 41.3634 0 40.5802V21.9687C0.000881711 21.1855 0.313423 20.4347 0.869055 19.8808C1.42469 19.327 2.17803 19.0155 2.96381 19.0146H70.0478C70.8336 19.0155 71.587 19.327 72.1426 19.8808C72.6982 20.4347 73.0108 21.1855 73.0116 21.9687V40.5802C73.0108 41.3634 72.6982 42.1143 72.1426 42.6681C71.587 43.2219 70.8336 43.5334 70.0478 43.5343H68.146C67.8316 43.5346 67.5302 43.6593 67.3079 43.8808C67.0856 44.1024 66.9606 44.4028 66.9603 44.7161V53.9731C66.961 54.1518 66.9072 54.3265 66.806 54.474C66.7048 54.6215 66.5609 54.7348 66.3935 54.7989C66.29 54.8392 66.1799 54.86 66.0688 54.8601Z" fill="white"/>
<path d="M66.0688 54.8601C65.9458 54.86 65.8242 54.8343 65.7118 54.7846C65.5994 54.735 65.4986 54.6625 65.4158 54.5719L55.6172 43.9175C55.506 43.7969 55.3709 43.7005 55.2205 43.6346C55.07 43.5686 54.9075 43.5345 54.7431 43.5343H2.96381C2.17803 43.5334 1.42469 43.2219 0.869055 42.6681C0.313423 42.1143 0.000882233 41.3634 0 40.5802V21.9687C0.000881711 21.1855 0.313423 20.4347 0.869055 19.8808C1.42469 19.327 2.17803 19.0155 2.96381 19.0146H70.0478C70.8336 19.0155 71.587 19.327 72.1426 19.8808C72.6982 20.4347 73.0108 21.1855 73.0116 21.9687V40.5802C73.0108 41.3634 72.6982 42.1143 72.1426 42.6681C71.587 43.2219 70.8336 43.5334 70.0478 43.5343H68.146C67.8316 43.5346 67.5302 43.6593 67.3079 43.8808C67.0856 44.1024 66.9606 44.4028 66.9603 44.7161V53.9731C66.961 54.1518 66.9072 54.3265 66.806 54.474C66.7048 54.6215 66.5609 54.7348 66.3935 54.7989C66.29 54.8392 66.1799 54.86 66.0688 54.8601ZM2.96381 19.4083C2.28274 19.409 1.62978 19.6791 1.14819 20.1591C0.666595 20.6391 0.3957 21.2899 0.394931 21.9687V40.5802C0.395701 41.259 0.666598 41.9098 1.14819 42.3899C1.62978 42.8699 2.28274 43.1399 2.96381 43.1406H54.7431C54.9622 43.1409 55.1789 43.1864 55.3794 43.2743C55.58 43.3623 55.76 43.4907 55.9083 43.6515L65.7069 54.3059C65.7742 54.379 65.8621 54.4302 65.959 54.4527C66.056 54.4752 66.1575 54.468 66.2503 54.432C66.3431 54.3961 66.4228 54.333 66.479 54.2511C66.5352 54.1692 66.5653 54.0723 66.5653 53.9731V44.7161C66.5658 44.2984 66.7325 43.898 67.0288 43.6026C67.3251 43.3073 67.7269 43.1411 68.146 43.1406H70.0478C70.7289 43.1399 71.3819 42.8699 71.8634 42.3899C72.345 41.9098 72.6159 41.259 72.6167 40.5802V21.9687C72.6159 21.2899 72.345 20.6391 71.8634 20.1591C71.3819 19.6791 70.7289 19.409 70.0478 19.4083H2.96381Z" fill="#F6CF0A"/>
<path d="M7.27021 27.2255C8.70254 27.2255 9.86367 26.0682 9.86367 24.6406C9.86367 23.213 8.70254 22.0557 7.27021 22.0557C5.83789 22.0557 4.67676 23.213 4.67676 24.6406C4.67676 26.0682 5.83789 27.2255 7.27021 27.2255Z" fill="#C31C4A"/>
<path d="M67.0219 38.9438H5.98932C5.80754 38.944 5.6275 38.9085 5.4595 38.8393C5.29149 38.7701 5.13882 38.6686 5.0102 38.5406C4.88159 38.4125 4.77955 38.2605 4.70994 38.0931C4.64032 37.9257 4.60449 37.7463 4.60449 37.5652C4.60449 37.384 4.64032 37.2046 4.70994 37.0372C4.77955 36.8698 4.88159 36.7178 5.0102 36.5897C5.13882 36.4617 5.29149 36.3602 5.4595 36.291C5.6275 36.2218 5.80754 36.1863 5.98932 36.1865H67.0219C67.3885 36.187 67.7399 36.3324 67.9989 36.5909C68.258 36.8494 68.4035 37.1998 68.4035 37.5652C68.4035 37.9305 68.258 38.2809 67.9989 38.5394C67.7399 38.7979 67.3885 38.9433 67.0219 38.9438Z" fill="#E6E6E6"/>
<path d="M47.1388 33.0844H5.98932C5.80754 33.0846 5.6275 33.0491 5.4595 32.9799C5.29149 32.9108 5.13882 32.8092 5.0102 32.6812C4.88159 32.5532 4.77955 32.4011 4.70994 32.2337C4.64032 32.0664 4.60449 31.887 4.60449 31.7058C4.60449 31.5246 4.64032 31.3452 4.70994 31.1778C4.77955 31.0105 4.88159 30.8584 5.0102 30.7304C5.13882 30.6023 5.29149 30.5008 5.4595 30.4316C5.6275 30.3624 5.80754 30.3269 5.98932 30.3271H47.1388C47.5056 30.3271 47.8574 30.4724 48.1168 30.7309C48.3762 30.9895 48.522 31.3401 48.522 31.7058C48.522 32.0714 48.3762 32.4221 48.1168 32.6806C47.8574 32.9392 47.5056 33.0844 47.1388 33.0844Z" fill="#E6E6E6"/>
<path d="M109.606 117.978C109.439 117.914 109.295 117.8 109.194 117.653C109.093 117.505 109.039 117.33 109.04 117.152V107.895C109.039 107.582 108.914 107.281 108.692 107.06C108.47 106.838 108.168 106.713 107.854 106.713H105.952C105.166 106.712 104.413 106.401 103.857 105.847C103.302 105.293 102.989 104.542 102.988 103.759V85.1474C102.989 84.3642 103.302 83.6134 103.857 83.0596C104.413 82.5057 105.166 82.1942 105.952 82.1934H173.036C173.822 82.1942 174.575 82.5057 175.131 83.0596C175.686 83.6134 175.999 84.3642 176 85.1474V103.759C175.999 104.542 175.686 105.293 175.131 105.847C174.575 106.401 173.822 106.712 173.036 106.713H121.257C121.092 106.713 120.93 106.747 120.779 106.813C120.629 106.879 120.494 106.976 120.383 107.096L110.584 117.751C110.501 117.841 110.401 117.914 110.288 117.963C110.176 118.013 110.054 118.039 109.931 118.039C109.82 118.039 109.71 118.018 109.606 117.978Z" fill="white"/>
<path d="M109.606 117.978C109.439 117.914 109.295 117.8 109.194 117.653C109.093 117.505 109.039 117.33 109.04 117.152V107.895C109.039 107.582 108.914 107.281 108.692 107.06C108.47 106.838 108.168 106.713 107.854 106.713H105.952C105.166 106.712 104.413 106.401 103.857 105.847C103.302 105.293 102.989 104.542 102.988 103.759V85.1474C102.989 84.3642 103.302 83.6134 103.857 83.0596C104.413 82.5057 105.166 82.1942 105.952 82.1934H173.036C173.822 82.1942 174.575 82.5057 175.131 83.0596C175.686 83.6134 175.999 84.3642 176 85.1474V103.759C175.999 104.542 175.686 105.293 175.131 105.847C174.575 106.401 173.822 106.712 173.036 106.713H121.257C121.092 106.713 120.93 106.747 120.779 106.813C120.629 106.879 120.494 106.976 120.383 107.096L110.584 117.751C110.501 117.841 110.401 117.914 110.288 117.963C110.176 118.013 110.054 118.039 109.931 118.039C109.82 118.039 109.71 118.018 109.606 117.978ZM105.952 82.587C105.271 82.5878 104.618 82.8578 104.136 83.3378C103.655 83.8178 103.384 84.4686 103.383 85.1474V103.759C103.384 104.438 103.655 105.089 104.136 105.569C104.618 106.049 105.271 106.319 105.952 106.319H107.854C108.273 106.32 108.675 106.486 108.971 106.781C109.267 107.077 109.434 107.477 109.435 107.895V117.152C109.435 117.251 109.465 117.348 109.521 117.43C109.577 117.512 109.657 117.575 109.75 117.611C109.842 117.647 109.944 117.654 110.041 117.631C110.138 117.609 110.226 117.558 110.293 117.485L120.092 106.83C120.24 106.669 120.42 106.541 120.62 106.453C120.821 106.365 121.038 106.32 121.257 106.319H173.036C173.717 106.319 174.37 106.049 174.852 105.569C175.333 105.089 175.604 104.438 175.605 103.759V85.1474C175.604 84.4686 175.333 83.8178 174.852 83.3378C174.37 82.8578 173.717 82.5878 173.036 82.587H105.952Z" fill="#F6CF0A"/>
<path d="M88.6968 123.741C85.9458 125.496 82.7585 126.454 79.4923 126.506C76.226 126.557 73.0098 125.702 70.2041 124.034C70.6977 123.118 71.323 122.279 72.0604 121.544C73.198 120.405 74.5825 119.541 76.1075 119.018C77.6325 118.495 79.2575 118.328 80.8575 118.529C82.4576 118.73 83.9901 119.293 85.3375 120.177C86.6848 121.06 87.811 122.24 88.6296 123.625C88.6513 123.662 88.675 123.701 88.6968 123.741Z" fill="#C31C4A"/>
<path d="M78.6785 114.329C83.499 114.329 87.4068 110.434 87.4068 105.629C87.4068 100.825 83.499 96.9297 78.6785 96.9297C73.858 96.9297 69.9502 100.825 69.9502 105.629C69.9502 110.434 73.858 114.329 78.6785 114.329Z" fill="#333333"/>
<path d="M85.1735 111.765C86.8944 108.628 85.7374 104.693 82.5893 102.978C79.4412 101.263 75.4941 102.416 73.7732 105.554C72.0523 108.692 73.2093 112.626 76.3574 114.341C79.5055 116.056 83.4526 114.903 85.1735 111.765Z" fill="#FFB8B8"/>
<path d="M72.6465 104.587C74.131 105.607 75.8929 106.15 77.6958 106.143C77.0527 106.587 76.3206 106.887 75.5499 107.023C77.947 107.535 80.4244 107.549 82.8271 107.063C83.3612 106.978 83.8765 106.802 84.3505 106.542C84.5867 106.41 84.7925 106.231 84.9545 106.015C85.1165 105.799 85.2311 105.552 85.2909 105.289C85.4505 104.379 84.7398 103.553 84.0012 102.997C82.8703 102.158 81.5665 101.579 80.1839 101.304C78.8013 101.029 77.3746 101.063 76.007 101.405C75.114 101.635 74.2194 102.023 73.6394 102.738C73.0594 103.453 72.8876 104.555 73.4402 105.291L72.6465 104.587Z" fill="#333333"/>
<path d="M79.2121 126.704C74.9374 126.703 70.8066 125.165 67.5772 122.374C64.3479 119.582 62.2366 115.724 61.6306 111.506C61.0247 107.289 61.9647 102.995 64.2782 99.4122C66.5917 95.8295 70.1236 93.1984 74.2261 92.0013C78.3286 90.8043 82.7265 91.1217 86.6132 92.8953C90.4999 94.6688 93.6147 97.7796 95.3863 101.657C97.1579 105.535 97.4675 109.919 96.2583 114.005C95.0491 118.092 92.4022 121.607 88.8031 123.906C85.941 125.735 82.612 126.706 79.2121 126.704ZM79.2121 91.6707C75.7748 91.6704 72.4146 92.6861 69.5564 94.5892C66.6983 96.4924 64.4705 99.1977 63.155 102.363C61.8394 105.528 61.4952 109.011 62.1657 112.371C62.8362 115.731 64.4914 118.818 66.9219 121.24C69.3524 123.663 72.4492 125.313 75.8204 125.981C79.1917 126.649 82.6861 126.306 85.8617 124.995C89.0373 123.684 91.7514 121.463 93.6609 118.615C95.5703 115.766 96.5894 112.417 96.589 108.991C96.5838 104.399 94.7514 99.9963 91.4937 96.7493C88.236 93.5024 83.8191 91.6759 79.2121 91.6707Z" fill="#F6CF0A"/>
<path d="M111.334 90.207C112.766 90.207 113.927 89.0497 113.927 87.622C113.927 86.1944 112.766 85.0371 111.334 85.0371C109.901 85.0371 108.74 86.1944 108.74 87.622C108.74 89.0497 109.901 90.207 111.334 90.207Z" fill="#C31C4A"/>
<path d="M171.086 101.925H110.054C109.872 101.925 109.692 101.89 109.524 101.821C109.356 101.752 109.203 101.65 109.075 101.522C108.946 101.394 108.844 101.242 108.774 101.075C108.705 100.907 108.669 100.728 108.669 100.547C108.669 100.365 108.705 100.186 108.774 100.019C108.844 99.8513 108.946 99.6992 109.075 99.5712C109.203 99.4431 109.356 99.3416 109.524 99.2724C109.692 99.2032 109.872 99.1678 110.054 99.168H171.086C171.453 99.168 171.805 99.3132 172.064 99.5718C172.324 99.8303 172.47 100.181 172.47 100.547C172.47 100.912 172.324 101.263 172.064 101.521C171.805 101.78 171.453 101.925 171.086 101.925Z" fill="#E6E6E6"/>
<path d="M151.203 96.0659H110.054C109.872 96.0661 109.692 96.0306 109.524 95.9614C109.356 95.8922 109.203 95.7907 109.075 95.6626C108.946 95.5346 108.844 95.3826 108.774 95.2152C108.705 95.0478 108.669 94.8684 108.669 94.6872C108.669 94.506 108.705 94.3266 108.774 94.1593C108.844 93.9919 108.946 93.8398 109.075 93.7118C109.203 93.5838 109.356 93.4823 109.524 93.4131C109.692 93.3439 109.872 93.3084 110.054 93.3086H151.203C151.57 93.309 151.921 93.4545 152.18 93.713C152.439 93.9715 152.585 94.3219 152.585 94.6872C152.585 95.0526 152.439 95.403 152.18 95.6615C151.921 95.92 151.57 96.0654 151.203 96.0659Z" fill="#E6E6E6"/>
<path d="M109.522 119.74C112.195 119.74 114.361 119.501 114.361 119.205C114.361 118.91 112.195 118.67 109.522 118.67C106.85 118.67 104.684 118.91 104.684 119.205C104.684 119.501 106.85 119.74 109.522 119.74Z" fill="#F2F2F2"/>
<path d="M66.2781 56.759C68.9505 56.759 71.1168 56.5194 71.1168 56.2237C71.1168 55.9281 68.9505 55.6885 66.2781 55.6885C63.6058 55.6885 61.4395 55.9281 61.4395 56.2237C61.4395 56.5194 63.6058 56.759 66.2781 56.759Z" fill="#F2F2F2"/>
</svg>
