<svg width="154" height="199" viewBox="0 0 154 199" fill="none" xmlns="http://www.w3.org/2000/svg">
<path d="M105 192C123.778 192 139 191.328 139 190.5C139 189.672 123.778 189 105 189C86.2223 189 71 189.672 71 190.5C71 191.328 86.2223 192 105 192Z" fill="#B6B6B6"/>
<path d="M113.045 175.417C113.045 175.417 115.165 183.391 116.578 185.449C117.991 187.507 119.169 190.85 118.462 191.365C117.756 191.879 116.343 198.053 118.227 198.31C120.111 198.567 124.35 191.622 124.586 189.307C124.821 186.992 125.763 178.761 125.763 178.761C125.763 178.761 127.412 171.558 124.821 171.044C122.231 170.529 118.227 170.272 118.227 170.272L113.045 175.417Z" fill="#333333"/>
<path d="M103.154 183.905C103.154 183.905 100.092 192.651 99.3854 193.166C98.6789 193.68 96.0882 198.31 101.27 198.31C106.451 198.31 109.277 196.767 109.277 196.767L110.926 194.709C110.926 194.709 110.926 189.307 110.455 188.535C109.984 187.764 110.455 183.905 110.455 183.905H103.154Z" fill="#333333"/>
<path d="M82.1932 103.907C82.1932 103.907 78.4249 131.688 81.7222 140.691C85.0194 149.694 88.3166 152.266 88.3166 152.266L113.281 177.732C113.281 177.732 121.053 173.359 120.347 170.529C120.347 170.529 118.698 169.5 118.463 168.729C118.227 167.957 115.165 167.7 115.165 167.7C115.165 167.7 113.752 165.899 113.752 164.87C113.752 163.841 101.506 145.578 97.5018 144.292C97.5018 144.292 95.3821 141.462 95.6176 140.948C95.8532 140.434 94.9111 138.633 94.9111 138.633L97.2663 128.601L112.104 126.029C112.104 126.029 118.227 102.364 113.046 100.563C107.864 98.7625 82.1932 103.907 82.1932 103.907Z" fill="#333333"/>
<path d="M111.632 121.913L112.103 126.029C112.103 126.029 112.103 136.832 111.632 137.861C111.161 138.89 110.926 140.434 111.632 141.462C112.339 142.491 113.516 145.064 113.045 146.093C112.574 147.121 113.987 176.188 112.103 178.246C110.219 180.304 110.926 182.876 111.161 183.133C111.397 183.391 110.926 184.42 110.926 184.42C110.926 184.42 101.269 186.22 101.976 184.42C102.683 182.619 102.683 181.59 103.154 181.076C103.625 180.561 103.154 179.79 103.154 179.79C103.154 179.79 103.86 171.558 103.154 171.044C102.447 170.529 100.327 145.835 100.327 145.578C100.327 145.321 99.6208 144.806 99.6208 143.778C99.6208 142.749 99.6208 139.405 98.4432 138.89C97.2656 138.376 97.5012 125.772 97.5012 125.772L111.632 121.913Z" fill="#333333"/>
<path d="M94.9104 30.0826C94.9104 30.0826 95.8525 37.7994 98.6787 39.3428C101.505 40.8862 103.389 41.6579 103.389 41.6579L101.034 50.6609L100.092 58.3777H89.258L83.3701 53.2332L85.2542 44.7446L86.1963 43.2012C86.1963 43.2012 87.3739 37.5422 86.4318 35.7416C85.4898 33.941 94.9104 30.0826 94.9104 30.0826Z" fill="#FFB9B9"/>
<path d="M90.2002 48.8602L91.8488 52.2041C91.8488 52.2041 93.0264 47.574 94.675 46.8023C96.3236 46.0306 100.327 44.7445 100.327 43.7156C100.327 42.6867 100.092 40.1144 101.034 40.1144C101.976 40.1144 111.161 43.2011 112.574 44.23C113.987 45.2589 114.223 46.2879 114.223 46.2879L111.632 75.8691C111.632 75.8691 115.4 89.7595 114.223 95.1613C113.045 100.563 112.103 101.335 109.277 102.106C106.451 102.878 108.099 100.306 99.8563 102.878C91.6133 105.45 86.4319 104.679 84.5478 104.679C82.6636 104.679 81.4861 105.708 81.015 105.965C80.544 106.222 80.7795 104.679 82.4281 102.364C84.0767 100.049 83.3702 96.1902 83.3702 96.1902C83.3702 96.1902 81.4861 89.5023 82.6636 86.93C83.8412 84.3577 85.4898 81.0137 84.0767 79.9848C82.6636 78.9559 80.7795 71.239 80.7795 71.239L75.5981 51.1752L86.1964 43.2011C86.1964 43.2011 85.7254 46.8023 87.374 47.574C89.0226 48.3457 90.2002 48.8602 90.2002 48.8602Z" fill="#C31C4A"/>
<path d="M77.0114 50.9182H75.5983C75.5983 50.9182 73.2432 55.291 73.2432 58.3778C73.2432 61.4645 74.4208 78.9561 74.4208 78.9561L81.2507 86.6729L82.8993 80.7567L83.3704 67.638L77.0114 50.9182Z" fill="#C31C4A"/>
<path d="M80.7796 78.1842C80.7796 78.1842 73.0075 75.8691 73.243 79.4703C73.4786 83.0715 74.6561 87.4444 78.4244 88.4733C82.1927 89.5022 83.3702 83.8432 83.3702 83.8432C83.3702 83.8432 83.8413 78.6986 80.7796 78.1842Z" fill="#C31C4A"/>
<path d="M109.984 90.0167C109.984 90.0167 109.513 101.849 106.687 103.135L113.516 104.936C113.516 104.936 116.814 92.589 116.343 92.0746C115.872 91.5601 109.984 90.0167 109.984 90.0167Z" fill="#FFB9B9"/>
<path d="M69.5876 65.9317L73.6323 64.0019C73.7071 63.9663 73.7876 63.947 73.8692 63.9453C73.9508 63.9436 74.0319 63.9595 74.1079 63.992C74.1839 64.0245 74.2533 64.0731 74.3121 64.1349C74.3709 64.1967 74.418 64.2706 74.4507 64.3523L78.9472 75.5944C79.0278 75.7959 79.0319 76.0241 78.9584 76.2289C78.8849 76.4336 78.74 76.5981 78.5554 76.6862L74.7631 78.4956C74.5785 78.5836 74.3696 78.588 74.1821 78.5078C73.9946 78.4275 73.844 78.2692 73.7634 78.0677L69.2669 66.8256C69.2009 66.6606 69.1976 66.4737 69.2578 66.3061C69.3179 66.1385 69.4366 66.0038 69.5876 65.9317Z" fill="#333333"/>
<path opacity="0.1" d="M69.5876 65.9317L73.6323 64.0019C73.7071 63.9663 73.7876 63.947 73.8692 63.9453C73.9508 63.9436 74.0319 63.9595 74.1079 63.992C74.1839 64.0245 74.2533 64.0731 74.3121 64.1349C74.3709 64.1967 74.418 64.2706 74.4507 64.3523L78.9472 75.5944C79.0278 75.7959 79.0319 76.0241 78.9584 76.2289C78.8849 76.4336 78.74 76.5981 78.5554 76.6862L74.7631 78.4956C74.5785 78.5836 74.3696 78.588 74.1821 78.5078C73.9946 78.4275 73.844 78.2692 73.7634 78.0677L69.2669 66.8256C69.2009 66.6606 69.1976 66.4737 69.2578 66.3061C69.3179 66.1385 69.4366 66.0038 69.5876 65.9317Z" fill="black"/>
<path d="M69.8171 66.5053L73.3434 64.8229C73.4945 64.7508 73.6656 64.7472 73.819 64.8129C73.9725 64.8786 74.0958 65.0082 74.1618 65.1732L78.4288 75.8415C78.5094 76.043 78.5135 76.2713 78.44 76.476C78.3665 76.6808 78.2216 76.8452 78.037 76.9333L74.763 78.4954C74.5785 78.5834 74.3696 78.5878 74.1821 78.5075C73.9946 78.4273 73.844 78.269 73.7634 78.0675L69.4964 67.3992C69.4304 67.2342 69.4271 67.0473 69.4873 66.8797C69.5474 66.7121 69.6661 66.5774 69.8171 66.5053Z" fill="#333333"/>
<path d="M73.0603 71.0559C73.6329 70.7827 73.8915 70.0475 73.638 69.4136C73.3845 68.7798 72.7148 68.4875 72.1422 68.7607C71.5696 69.0338 71.311 69.7691 71.5645 70.403C71.818 71.0368 72.4877 71.3291 73.0603 71.0559Z" fill="#F2F2F2"/>
<path opacity="0.1" d="M111.751 49.7606L113.281 47.3169C113.281 47.3169 118.934 56.8344 118.463 63.2651C117.992 69.6958 117.521 69.953 117.521 70.9819C117.521 72.0108 116.343 72.0108 117.521 73.297C118.698 74.5831 120.347 76.3837 119.405 77.4126C118.463 78.4416 117.756 78.4415 117.992 79.7277C118.142 80.662 118.221 81.6085 118.227 82.5572C118.227 82.5572 116.225 86.8015 115.519 86.8015C114.812 86.8015 108.1 93.618 108.1 92.8464C108.1 92.0747 108.807 86.6729 108.807 85.9012C108.807 85.1295 109.042 82.5572 109.513 81.7855C109.984 81.0138 109.984 81.2711 109.513 80.4994C109.042 79.7277 109.042 80.4994 109.042 79.7277C109.042 78.956 109.278 77.9271 108.571 77.6699C107.865 77.4126 107.158 77.6699 107.629 76.3837C108.1 75.0976 107.629 74.0687 107.394 74.0687C107.158 74.0687 105.98 73.8114 106.687 73.0398C107.394 72.2681 105.274 57.3488 105.274 57.3488C105.274 57.3488 105.627 53.619 111.751 49.7606Z" fill="black"/>
<path d="M110.455 44.2302L114.458 46.288C114.458 46.288 120.111 55.8054 119.64 62.2362C119.169 68.6669 118.698 68.9241 118.698 69.953C118.698 70.9819 117.52 70.9819 118.698 72.2681C119.875 73.5542 121.524 75.3548 120.582 76.3837C119.64 77.4126 118.933 77.4126 119.169 78.6988C119.319 79.6331 119.398 80.5796 119.404 81.5283C119.404 81.5283 117.285 93.8753 116.578 93.8753C115.872 93.8753 109.277 92.5891 109.277 91.8175C109.277 91.0458 109.984 85.644 109.984 84.8723C109.984 84.1006 110.219 81.5283 110.69 80.7566C111.161 79.9849 111.161 80.2422 110.69 79.4705C110.219 78.6988 110.219 79.4705 110.219 78.6988C110.219 77.9271 110.455 76.8982 109.748 76.641C109.042 76.3837 108.335 76.641 108.806 75.3548C109.277 74.0687 108.806 73.0398 108.571 73.0398C108.335 73.0398 107.157 72.7825 107.864 72.0109C108.571 71.2392 106.451 56.3199 106.451 56.3199C106.451 56.3199 104.331 48.0886 110.455 44.2302Z" fill="#C31C4A"/>
<path d="M74.7174 80.0213C74.498 80.0848 74.2654 80.0638 74.0586 79.9618C73.8518 79.8599 73.6835 79.6833 73.5819 79.4617C72.4996 77.0983 69.5672 70.1662 72.3009 69.9529C74.8228 69.7562 77.0691 75.1271 77.9861 77.6639C78.0445 77.825 78.0709 77.9979 78.0636 78.171C78.0563 78.3441 78.0154 78.5135 77.9438 78.6681C77.8721 78.8227 77.7712 78.959 77.6478 79.0678C77.5244 79.1767 77.3812 79.2558 77.2278 79.2998L74.7174 80.0213Z" fill="#FFB9B9"/>
<path d="M88.3166 37.285C93.1293 37.285 97.0307 33.0239 97.0307 27.7676C97.0307 22.5112 93.1293 18.2501 88.3166 18.2501C83.504 18.2501 79.6025 22.5112 79.6025 27.7676C79.6025 33.0239 83.504 37.285 88.3166 37.285Z" fill="#FFB9B9"/>
<path d="M85.1147 22.2863C84.0274 22.696 82.9051 22.9854 81.7647 23.15C80.9065 23.2962 79.9022 23.3711 79.299 22.6885C78.7071 22.0185 78.8028 20.901 79.2066 20.0811C79.6103 19.2611 80.2571 18.6183 80.7423 17.8528C81.5055 16.6489 81.9559 15.0528 83.1761 14.4463C83.6818 14.2349 84.2185 14.1254 84.7599 14.1232C87.9264 13.9027 91.2223 13.7041 94.1547 15.0275C95.2565 15.486 96.2327 16.2446 96.9904 17.2311C97.4868 17.9576 97.8698 18.7687 98.1239 19.6316C98.9076 22.1707 99.0818 24.8869 98.63 27.5205C98.1782 30.1542 97.1155 32.6173 95.5434 34.6743C94.4747 33.6227 94.9395 31.1927 93.5872 30.6568C93.1436 30.481 92.6421 30.6034 92.1877 30.4642C90.7596 30.0268 90.8313 27.6163 89.6424 26.6477C89.3827 26.4951 89.1528 26.2887 88.9653 26.0401C88.8608 25.8016 88.8154 25.5374 88.8336 25.2738C88.825 24.3707 89.2133 22.0769 88.4246 21.4579C87.6218 20.8278 85.8862 21.982 85.1147 22.2863Z" fill="#333333"/>
<path d="M53.352 40.8508H1.13623V0.682678H71.9717V40.8508H67.2821H66.7821V41.3508V55.2785L53.7208 41.0131L53.5721 40.8508H53.352Z" fill="#F6F6F6" stroke="#B6B6B6"/>
<path d="M80.3706 191.453V156.82" stroke="#B6B6B6" stroke-width="2" stroke-miterlimit="10"/>
<path d="M80.3709 161.718C82.8475 161.718 84.8551 159.525 84.8551 156.82C84.8551 154.115 82.8475 151.923 80.3709 151.923C77.8944 151.923 75.8867 154.115 75.8867 156.82C75.8867 159.525 77.8944 161.718 80.3709 161.718Z" fill="#B6B6B6"/>
<path d="M80.3705 178.165C80.3705 178.165 79.7299 163.117 66.5977 164.867L80.3705 178.165Z" fill="#B6B6B6"/>
<path d="M15.1977 14.5838C15.0199 14.5731 14.8459 14.5213 14.6868 14.4318C14.5277 14.3422 14.387 14.2167 14.2734 14.0633C14.1598 13.9098 14.0758 13.7317 14.0268 13.5402C13.9777 13.3486 13.9647 13.1477 13.9884 12.9502L14.0874 12.1365C14.1063 11.9804 14.0911 11.8216 14.043 11.6736C13.9949 11.5256 13.9154 11.3929 13.8113 11.2869L13.2688 10.7349C13.0912 10.5542 12.9623 10.3215 12.8967 10.0631C12.8312 9.80462 12.8316 9.53078 12.8979 9.27252C12.9642 9.01425 13.0937 8.78187 13.2719 8.60165C13.4501 8.42144 13.6698 8.30058 13.9061 8.25274L14.6283 8.10644C14.7667 8.07842 14.897 8.01317 15.0079 7.91632C15.1188 7.81946 15.2071 7.69389 15.265 7.55043L15.567 6.80139C15.6658 6.55654 15.8239 6.34748 16.0234 6.19784C16.2229 6.0482 16.4557 5.96395 16.6957 5.95461C16.9357 5.94527 17.1732 6.01122 17.3813 6.145C17.5895 6.27877 17.7601 6.47504 17.8737 6.71163L18.2207 7.43476C18.2873 7.5736 18.383 7.69222 18.4997 7.78039C18.6164 7.86856 18.7505 7.92363 18.8905 7.94084L19.6197 8.03033C19.8584 8.05966 20.085 8.16313 20.2738 8.32905C20.4627 8.49496 20.6062 8.7167 20.6882 8.96918C20.7702 9.22166 20.7875 9.49482 20.7379 9.75775C20.6884 10.0207 20.5741 10.2629 20.408 10.457L19.9006 11.0501C19.8032 11.1637 19.7319 11.3022 19.6931 11.4535C19.6542 11.6048 19.6488 11.7644 19.6775 11.9186L19.8261 12.7229C19.8747 12.986 19.8567 13.259 19.7739 13.5112C19.6911 13.7633 19.5469 13.9846 19.3577 14.1499C19.1684 14.3153 18.9416 14.4181 18.7029 14.4468C18.4642 14.4755 18.2231 14.4289 18.0068 14.3123L17.3459 13.956C17.2192 13.8874 17.0794 13.8543 16.9387 13.8597C16.798 13.8651 16.6606 13.9089 16.5383 13.9871L15.9008 14.3942C15.6874 14.5312 15.4434 14.597 15.1977 14.5838Z" fill="#F6CF0A"/>
<path d="M25.2092 14.0622C24.9054 14.0436 24.6192 13.8972 24.4078 13.6524C24.2801 13.4984 24.1854 13.3138 24.1309 13.1127C24.0764 12.9117 24.0635 12.6993 24.0931 12.4918L24.1775 11.7986C24.1954 11.651 24.1811 11.5007 24.1356 11.3607C24.0901 11.2207 24.0149 11.0952 23.9165 10.995L23.4493 10.5196C23.3115 10.3856 23.2022 10.2188 23.1292 10.0315C23.0562 9.84423 23.0215 9.64105 23.0276 9.4368C23.0403 9.13426 23.1444 8.84548 23.323 8.61779C23.5015 8.39009 23.7438 8.23698 24.0102 8.18354L24.6728 8.04927C24.8038 8.02272 24.9271 7.96091 25.0321 7.86917C25.137 7.77742 25.2205 7.65849 25.2752 7.52265L25.5268 6.89852C25.6168 6.66158 25.7635 6.45701 25.9507 6.30732C26.1379 6.15764 26.3584 6.06864 26.5878 6.05014C26.8126 6.03803 27.0359 6.09761 27.2316 6.22196C27.4273 6.34631 27.5874 6.53031 27.6933 6.75256L28.0116 7.41621C28.0747 7.54758 28.1653 7.6598 28.2757 7.7432C28.3862 7.82661 28.5131 7.87868 28.6455 7.89494L29.2729 7.97196C29.4549 7.98964 29.6311 8.05257 29.7886 8.15616C29.9461 8.25975 30.0809 8.40139 30.1832 8.57074C30.3316 8.82381 30.3988 9.12579 30.3739 9.42726C30.3489 9.72874 30.2333 10.0119 30.0458 10.2303L29.5802 10.7746C29.4882 10.8821 29.421 11.0131 29.3842 11.1562C29.3475 11.2993 29.3423 11.4502 29.3692 11.5959L29.4966 12.2856C29.5376 12.4847 29.5386 12.6915 29.4996 12.8911C29.4605 13.0907 29.3823 13.2781 29.2706 13.4398C29.102 13.6774 28.8661 13.8435 28.6018 13.9108C28.3375 13.9782 28.0606 13.9426 27.8168 13.8101L27.2097 13.4827C27.0899 13.4181 26.9579 13.3871 26.825 13.3923C26.6921 13.3975 26.5623 13.4387 26.4468 13.5125L25.8619 13.8862C25.6638 14.0133 25.4373 14.0744 25.2092 14.0622Z" fill="#F6CF0A"/>
<path d="M35.3855 14.1586C35.2204 14.1487 35.0589 14.1007 34.9111 14.0175C34.7634 13.9343 34.6327 13.8178 34.5272 13.6753C34.4217 13.5329 34.3438 13.3675 34.2982 13.1896C34.2527 13.0117 34.2405 12.8252 34.2626 12.6418L34.3545 11.8862C34.3721 11.7413 34.3579 11.5938 34.3133 11.4563C34.2686 11.3189 34.1948 11.1957 34.0981 11.0973L33.5944 10.5847C33.4295 10.4169 33.3098 10.2008 33.2489 9.96086C33.188 9.72088 33.1884 9.4666 33.25 9.22679C33.3115 8.98697 33.4318 8.77119 33.5973 8.60384C33.7627 8.43649 33.9667 8.32426 34.1862 8.27984L34.8568 8.14399C34.9853 8.11797 35.1063 8.05739 35.2093 7.96745C35.3123 7.87752 35.3942 7.76092 35.448 7.6277L35.7284 6.93217C35.8202 6.7048 35.967 6.51068 36.1522 6.37172C36.3375 6.23277 36.5537 6.15454 36.7765 6.14587C36.9994 6.1372 37.2199 6.19843 37.4132 6.32265C37.6065 6.44687 37.7649 6.62913 37.8704 6.84882L38.1926 7.5203C38.2544 7.64922 38.3433 7.75937 38.4517 7.84124C38.56 7.92311 38.6846 7.97424 38.8146 7.99022L39.4917 8.07332C39.7134 8.10055 39.9237 8.19663 40.0991 8.3507C40.2744 8.50476 40.4077 8.71067 40.4838 8.94511C40.56 9.17956 40.576 9.4332 40.53 9.67735C40.4841 9.92149 40.3779 10.1464 40.2237 10.3266L39.7525 10.8774C39.662 10.9829 39.5959 11.1115 39.5598 11.252C39.5237 11.3925 39.5187 11.5407 39.5453 11.6838L39.6833 12.4307C39.7285 12.675 39.7117 12.9285 39.6348 13.1627C39.558 13.3968 39.4241 13.6023 39.2484 13.7558C39.0726 13.9093 38.862 14.0048 38.6403 14.0315C38.4187 14.0581 38.1948 14.0149 37.994 13.9066L37.3803 13.5758C37.2626 13.512 37.1328 13.4813 37.0022 13.4863C36.8715 13.4914 36.7439 13.532 36.6304 13.6046L36.0384 13.9827C35.8402 14.1098 35.6137 14.1709 35.3855 14.1586Z" fill="#F6CF0A"/>
<path d="M45.1689 14.253C44.9911 14.2423 44.8171 14.1906 44.658 14.101C44.4989 14.0114 44.3582 13.886 44.2446 13.7325C44.131 13.5791 44.047 13.401 43.998 13.2094C43.9489 13.0178 43.9359 12.817 43.9596 12.6195L44.0586 11.8058C44.0775 11.6497 44.0623 11.4908 44.0142 11.3428C43.9661 11.1948 43.8866 11.0621 43.7825 10.9562L43.24 10.4042C43.0624 10.2235 42.9335 9.99075 42.8679 9.73231C42.8023 9.47387 42.8028 9.20003 42.8691 8.94177C42.9354 8.68351 43.0649 8.45112 43.2431 8.2709C43.4213 8.09069 43.6409 7.96983 43.8773 7.92199L44.5995 7.77569C44.7379 7.74767 44.8682 7.68242 44.9791 7.58557C45.09 7.48871 45.1783 7.36314 45.2362 7.21968L45.5382 6.47065C45.637 6.22579 45.7951 6.01673 45.9946 5.86709C46.1941 5.71745 46.4269 5.6332 46.6669 5.62386C46.9069 5.61452 47.1444 5.68047 47.3525 5.81425C47.5607 5.94802 47.7313 6.1443 47.8449 6.38088L48.1919 7.10401C48.2584 7.24285 48.3542 7.36147 48.4709 7.44964C48.5876 7.53781 48.7217 7.59288 48.8617 7.61009L49.5909 7.69958C49.8296 7.72891 50.0562 7.83238 50.245 7.9983C50.4338 8.16421 50.5774 8.38596 50.6594 8.63844C50.7414 8.89092 50.7586 9.16407 50.7091 9.427C50.6596 9.68992 50.5453 9.93214 50.3792 10.1262L49.8718 10.7194C49.7744 10.833 49.7031 10.9714 49.6642 11.1228C49.6254 11.2741 49.62 11.4337 49.6487 11.5878L49.7973 12.3922C49.8459 12.6552 49.8279 12.9282 49.7451 13.1804C49.6623 13.4326 49.5181 13.6538 49.3289 13.8192C49.1396 13.9845 48.9128 14.0874 48.6741 14.1161C48.4354 14.1447 48.1943 14.0982 47.978 13.9816L47.3171 13.6253C47.1904 13.5566 47.0506 13.5236 46.9099 13.529C46.7692 13.5344 46.6317 13.5781 46.5095 13.6564L45.872 14.0635C45.6586 14.2004 45.4146 14.2662 45.1689 14.253Z" fill="#F6CF0A"/>
<path d="M54.7852 13.7273C54.6073 13.7173 54.4334 13.6691 54.2742 13.5858C54.1151 13.5025 53.9743 13.3859 53.8606 13.2434C53.7469 13.1008 53.6628 12.9353 53.6137 12.7574C53.5645 12.5795 53.5513 12.393 53.5749 12.2096L53.6735 11.4541C53.6923 11.3092 53.677 11.1616 53.6288 11.0242C53.5806 10.8867 53.501 10.7635 53.3969 10.665L52.8541 10.152C52.6763 9.98413 52.5473 9.76794 52.4816 9.52791C52.4159 9.28789 52.4162 9.03361 52.4823 8.79383C52.5485 8.55406 52.6779 8.33837 52.856 8.17114C53.034 8.00392 53.2536 7.89183 53.4899 7.84757L54.212 7.71221C54.3505 7.68629 54.4807 7.6258 54.5916 7.53594C54.7024 7.44608 54.7906 7.32953 54.8484 7.19636L55.15 6.50103C55.2487 6.27373 55.4067 6.07971 55.6061 5.94089C55.8054 5.80208 56.0383 5.724 56.2782 5.7155C56.5182 5.70699 56.7557 5.76839 56.964 5.89276C57.1722 6.01712 57.3429 6.19949 57.4567 6.41926L57.8041 7.09099C57.8707 7.21996 57.9665 7.33017 58.0833 7.41212C58.2 7.49407 58.3342 7.5453 58.4742 7.56138L59.2034 7.64498C59.4421 7.67237 59.6688 7.76861 59.8577 7.9228C60.0466 8.077 60.1903 8.283 60.2724 8.51751C60.3546 8.75201 60.372 9.00566 60.3226 9.24978C60.2733 9.49389 60.1591 9.71873 59.9931 9.89886L59.486 10.4493C59.3886 10.5547 59.3175 10.6832 59.2787 10.8237C59.2399 10.9642 59.2347 11.1124 59.2634 11.2555L59.4125 12.0026C59.4613 12.2468 59.4433 12.5003 59.3607 12.7344C59.2781 12.9686 59.134 13.1739 58.9449 13.3273C58.7557 13.4807 58.529 13.5761 58.2903 13.6025C58.0516 13.629 57.8104 13.5856 57.5941 13.4772L56.933 13.1459C56.8063 13.082 56.6665 13.0513 56.5258 13.0562C56.385 13.0611 56.2476 13.1016 56.1255 13.1742L55.4882 13.5518C55.2748 13.6788 55.0309 13.7397 54.7852 13.7273Z" fill="#F6CF0A"/>
<path d="M46.2733 24.7144L10.355 24.642C10.1496 24.6416 9.9618 24.4466 9.83299 24.1C9.70417 23.7534 9.64488 23.2836 9.66814 22.7939C9.69141 22.3041 9.79532 21.8347 9.95703 21.4887C10.1187 21.1427 10.325 20.9485 10.5304 20.949L46.4487 21.0214C46.6542 21.0218 46.8419 21.2168 46.9708 21.5634C47.0996 21.91 47.1589 22.3797 47.1356 22.8695C47.1123 23.3592 47.0084 23.8287 46.8467 24.1747C46.685 24.5207 46.4787 24.7149 46.2733 24.7144Z" fill="#E1E1E1"/>
<path d="M28.6271 32.637L9.9825 32.5994C9.87586 32.5992 9.78284 32.4044 9.72388 32.058C9.66493 31.7115 9.64488 31.2418 9.66814 30.7521C9.69141 30.2623 9.75608 29.7928 9.84793 29.4467C9.93978 29.1005 10.0513 28.9062 10.1579 28.9064L28.8025 28.944C28.9092 28.9442 29.0022 29.139 29.0612 29.4854C29.1201 29.8319 29.1402 30.3016 29.1169 30.7913C29.0936 31.281 29.029 31.7506 28.9371 32.0968C28.8453 32.4429 28.7337 32.6372 28.6271 32.637Z" fill="#E1E1E1"/>
</svg>
