<svg width="416" height="368" viewBox="0 0 416 368" fill="none" xmlns="http://www.w3.org/2000/svg">
<path d="M226.662 4.05925C206.702 10.0412 189.097 26.0116 171.598 46.963C177.357 53.0187 180.835 61.4317 181.292 70.406C181.748 79.3802 179.145 88.2047 174.039 94.9953C168.933 101.786 161.728 106.005 153.963 106.751C146.198 107.498 138.487 104.713 132.477 98.9903C111.922 127.319 89.4783 157.267 62.0852 182.019C-7.66211 245.041 135.769 359.978 226.662 359.978C317.555 359.978 391.238 280.303 391.238 182.019C391.238 83.7344 314.253 -22.1921 226.662 4.05925Z" fill="white"/>
<path d="M150.47 110.423C162.228 110.423 171.76 100.034 171.76 87.2174C171.76 74.4013 162.228 64.0117 150.47 64.0117C138.712 64.0117 129.18 74.4013 129.18 87.2174C129.18 100.034 138.712 110.423 150.47 110.423Z" fill="#F6CF0A"/>
<path d="M354.147 320.405C385.428 320.405 410.787 319.448 410.787 318.269C410.787 317.089 385.428 316.132 354.147 316.132C322.865 316.132 297.507 317.089 297.507 318.269C297.507 319.448 322.865 320.405 354.147 320.405Z" fill="#B6B6B6"/>
<path d="M205.998 353.694C207.01 353.775 207.855 353.858 208.523 353.944C207.855 354.029 207.01 354.112 205.998 354.194C203.143 354.423 199.005 354.629 193.882 354.803C183.64 355.151 169.486 355.366 153.849 355.366C138.212 355.366 124.058 355.151 113.815 354.803C108.693 354.629 104.555 354.423 101.7 354.194C100.687 354.112 99.8423 354.029 99.1749 353.944C99.8423 353.858 100.687 353.775 101.7 353.694C104.555 353.465 108.693 353.258 113.815 353.084C124.058 352.736 138.212 352.521 153.849 352.521C169.486 352.521 183.64 352.736 193.882 353.084C199.005 353.258 203.143 353.465 205.998 353.694Z" fill="#B6B6B6" stroke="#B6B6B6"/>
<path d="M357.228 296.225C357.228 296.225 360.269 307.645 362.297 310.593C364.325 313.54 366.015 318.329 365.001 319.066C363.987 319.802 361.959 328.644 364.663 329.012C367.367 329.381 373.451 319.434 373.789 316.118C374.127 312.803 375.479 301.014 375.479 301.014C375.479 301.014 377.844 290.699 374.127 289.963C370.409 289.226 364.663 288.857 364.663 288.857L357.228 296.225Z" fill="#333333"/>
<path d="M343.032 308.382C343.032 308.382 338.639 320.907 337.625 321.644C336.611 322.381 332.893 329.012 340.328 329.012C347.764 329.012 351.82 326.801 351.82 326.801L354.186 323.854C354.186 323.854 354.186 316.118 353.51 315.013C352.834 313.908 353.51 308.382 353.51 308.382H343.032Z" fill="#333333"/>
<path d="M312.952 193.812C312.952 193.812 307.544 233.598 312.276 246.492C317.008 259.386 321.739 263.07 321.739 263.07L357.565 299.54C357.565 299.54 368.719 293.278 367.705 289.225C367.705 289.225 365.339 287.752 365.001 286.647C364.663 285.541 360.269 285.173 360.269 285.173C360.269 285.173 358.241 282.594 358.241 281.121C358.241 279.647 340.666 253.491 334.921 251.649C334.921 251.649 331.879 247.597 332.217 246.86C332.555 246.123 331.203 243.545 331.203 243.545L334.583 229.177L355.876 225.493C355.876 225.493 364.663 191.601 357.227 189.023C349.792 186.444 312.952 193.812 312.952 193.812Z" fill="#333333"/>
<path d="M355.2 219.599L355.876 225.493C355.876 225.493 355.876 240.966 355.2 242.439C354.524 243.913 354.186 246.123 355.2 247.597C356.214 249.071 357.904 252.754 357.228 254.228C356.552 255.702 358.58 297.33 355.876 300.277C353.172 303.224 354.186 306.908 354.524 307.277C354.862 307.645 354.186 309.119 354.186 309.119C354.186 309.119 340.329 311.697 341.343 309.119C342.357 306.54 342.357 305.066 343.033 304.329C343.709 303.593 343.033 302.487 343.033 302.487C343.033 302.487 344.047 290.699 343.033 289.962C342.019 289.225 338.977 253.86 338.977 253.491C338.977 253.123 337.963 252.386 337.963 250.912C337.963 249.439 337.963 244.65 336.273 243.913C334.583 243.176 334.921 225.125 334.921 225.125L355.2 219.599Z" fill="#333333"/>
<path d="M331.203 88.083C331.203 88.083 332.555 99.1348 336.61 101.345C340.666 103.555 343.37 104.661 343.37 104.661L339.99 117.554L338.638 128.606H323.091L314.642 121.238L317.345 109.081L318.697 106.871C318.697 106.871 320.387 98.7664 319.035 96.1877C317.683 93.6089 331.203 88.083 331.203 88.083Z" fill="#FFB9B9"/>
<path d="M324.443 114.976L326.809 119.765C326.809 119.765 328.499 113.134 330.865 112.028C333.231 110.923 338.976 109.081 338.976 107.608C338.976 106.134 338.638 102.45 339.99 102.45C341.342 102.45 354.523 106.871 356.551 108.344C358.579 109.818 358.917 111.292 358.917 111.292L355.199 153.657C355.199 153.657 360.607 173.55 358.917 181.286C357.227 189.022 355.875 190.128 351.82 191.233C347.764 192.338 350.13 188.654 338.3 192.338C326.471 196.022 319.035 194.917 316.332 194.917C313.628 194.917 311.938 196.39 311.262 196.759C310.586 197.127 310.924 194.917 313.29 191.601C315.656 188.286 314.642 182.76 314.642 182.76C314.642 182.76 311.938 173.182 313.628 169.498C315.318 165.814 317.683 161.025 315.656 159.551C313.628 158.078 310.924 147.026 310.924 147.026L303.488 118.291L318.697 106.871C318.697 106.871 318.021 112.028 320.387 113.134C322.753 114.239 324.443 114.976 324.443 114.976Z" fill="#C31C4A"/>
<path d="M305.516 117.923H303.488C303.488 117.923 300.108 124.186 300.108 128.606C300.108 133.027 301.798 158.078 301.798 158.078L311.6 169.129L313.966 160.656L314.642 141.868L305.516 117.923Z" fill="#C31C4A"/>
<path d="M310.924 156.972C310.924 156.972 299.77 153.657 300.108 158.814C300.446 163.972 302.136 170.235 307.544 171.708C312.951 173.182 314.641 165.077 314.641 165.077C314.641 165.077 315.317 157.709 310.924 156.972Z" fill="#C31C4A"/>
<path d="M352.834 173.918C352.834 173.918 352.158 190.865 348.103 192.706L357.904 195.285C357.904 195.285 362.636 177.602 361.96 176.866C361.284 176.129 352.834 173.918 352.834 173.918Z" fill="#FFB9B9"/>
<path d="M294.863 139.425L300.668 136.661C300.775 136.61 300.89 136.582 301.008 136.58C301.125 136.577 301.241 136.6 301.35 136.647C301.459 136.693 301.559 136.763 301.643 136.851C301.728 136.94 301.795 137.046 301.842 137.163L308.295 153.263C308.411 153.552 308.416 153.879 308.311 154.172C308.205 154.465 307.997 154.701 307.733 154.827L302.29 157.418C302.026 157.544 301.726 157.551 301.457 157.436C301.188 157.321 300.971 157.094 300.856 156.805L294.403 140.705C294.308 140.469 294.304 140.201 294.39 139.961C294.476 139.721 294.646 139.528 294.863 139.425Z" fill="#333333"/>
<path opacity="0.1" d="M294.863 139.425L300.668 136.661C300.775 136.61 300.89 136.582 301.008 136.58C301.125 136.577 301.241 136.6 301.35 136.647C301.459 136.693 301.559 136.763 301.643 136.851C301.728 136.94 301.795 137.046 301.842 137.163L308.295 153.263C308.411 153.552 308.416 153.879 308.311 154.172C308.205 154.465 307.997 154.701 307.733 154.827L302.29 157.418C302.026 157.544 301.726 157.551 301.457 157.436C301.188 157.321 300.971 157.094 300.856 156.805L294.403 140.705C294.308 140.469 294.304 140.201 294.39 139.961C294.476 139.721 294.646 139.528 294.863 139.425Z" fill="black"/>
<path d="M295.192 140.247L300.253 137.837C300.47 137.734 300.715 137.729 300.935 137.823C301.156 137.917 301.333 138.102 301.427 138.339L307.551 153.617C307.666 153.906 307.672 154.233 307.567 154.526C307.461 154.819 307.253 155.055 306.988 155.181L302.29 157.418C302.025 157.544 301.725 157.551 301.456 157.436C301.187 157.321 300.971 157.094 300.856 156.805L294.732 141.527C294.637 141.29 294.633 141.023 294.719 140.783C294.805 140.543 294.976 140.35 295.192 140.247Z" fill="#333333"/>
<path d="M299.846 146.763C300.668 146.372 301.039 145.319 300.675 144.411C300.312 143.504 299.351 143.085 298.529 143.476C297.707 143.867 297.336 144.92 297.7 145.828C298.064 146.736 299.025 147.155 299.846 146.763Z" fill="#F2F2F2"/>
<path opacity="0.1" d="M355.369 116.265L357.566 112.766C357.566 112.766 365.677 126.396 365.001 135.606C364.325 144.816 363.649 145.184 363.649 146.658C363.649 148.131 361.959 148.131 363.649 149.973C365.339 151.815 367.705 154.394 366.353 155.868C365.001 157.341 363.987 157.341 364.325 159.183C364.541 160.521 364.654 161.877 364.663 163.235C364.663 163.235 361.79 169.314 360.776 169.314C359.762 169.314 350.13 179.076 350.13 177.971C350.13 176.866 351.144 169.13 351.144 168.025C351.144 166.919 351.482 163.235 352.158 162.13C352.834 161.025 352.834 161.393 352.158 160.288C351.482 159.183 351.482 160.288 351.482 159.183C351.482 158.078 351.82 156.604 350.806 156.236C349.792 155.868 348.778 156.236 349.454 154.394C350.13 152.552 349.454 151.078 349.116 151.078C348.778 151.078 347.088 150.71 348.102 149.605C349.116 148.5 346.074 127.133 346.074 127.133C346.074 127.133 346.581 121.791 355.369 116.265Z" fill="black"/>
<path d="M353.51 108.345L359.255 111.292C359.255 111.292 367.367 124.922 366.691 134.132C366.015 143.342 365.339 143.71 365.339 145.184C365.339 146.658 363.649 146.658 365.339 148.5C367.029 150.342 369.395 152.92 368.043 154.394C366.691 155.867 365.677 155.867 366.015 157.709C366.231 159.047 366.344 160.403 366.353 161.762C366.353 161.762 363.311 179.445 362.297 179.445C361.283 179.445 351.82 177.603 351.82 176.497C351.82 175.392 352.834 167.656 352.834 166.551C352.834 165.446 353.172 161.762 353.848 160.656C354.524 159.551 354.524 159.92 353.848 158.815C353.172 157.709 353.172 158.815 353.172 157.709C353.172 156.604 353.51 155.131 352.496 154.762C351.482 154.394 350.468 154.762 351.144 152.92C351.82 151.078 351.144 149.605 350.806 149.605C350.468 149.605 348.778 149.236 349.792 148.131C350.806 147.026 347.764 125.659 347.764 125.659C347.764 125.659 344.722 113.871 353.51 108.345Z" fill="#C31C4A"/>
<path d="M302.224 159.603C301.909 159.694 301.576 159.664 301.279 159.518C300.982 159.372 300.741 159.119 300.595 158.802C299.042 155.417 294.833 145.489 298.756 145.184C302.375 144.902 305.599 152.594 306.915 156.227C306.999 156.458 307.037 156.706 307.026 156.953C307.016 157.201 306.957 157.444 306.854 157.665C306.751 157.887 306.607 158.082 306.43 158.238C306.252 158.394 306.047 158.507 305.827 158.57L302.224 159.603Z" fill="#FFB9B9"/>
<path d="M321.74 98.3983C328.646 98.3983 334.245 92.2957 334.245 84.7677C334.245 77.2398 328.646 71.1372 321.74 71.1372C314.833 71.1372 309.234 77.2398 309.234 84.7677C309.234 92.2957 314.833 98.3983 321.74 98.3983Z" fill="#FFB9B9"/>
<path d="M317.144 76.9177C315.584 77.5045 313.973 77.9189 312.337 78.1547C311.105 78.3641 309.664 78.4714 308.798 77.4937C307.949 76.5342 308.086 74.9338 308.666 73.7595C309.245 72.5852 310.173 71.6645 310.87 70.5682C311.965 68.844 312.611 66.5582 314.362 65.6896C315.088 65.3868 315.858 65.23 316.635 65.2269C321.179 64.9111 325.909 64.6266 330.117 66.5219C331.698 67.1786 333.099 68.265 334.187 69.6779C334.899 70.7183 335.449 71.8799 335.813 73.1157C336.938 76.7521 337.188 80.6422 336.54 84.414C335.891 88.1858 334.366 91.7133 332.11 94.6593C330.577 93.1532 331.244 89.6731 329.303 88.9057C328.666 88.6539 327.947 88.8291 327.295 88.6298C325.245 88.0034 325.348 84.5511 323.642 83.164C323.269 82.9454 322.939 82.6499 322.67 82.2938C322.52 81.9522 322.455 81.5738 322.481 81.1962C322.469 79.9029 323.026 76.6178 321.894 75.7313C320.742 74.8289 318.251 76.4819 317.144 76.9177Z" fill="#333333"/>
<path d="M271.564 103.721H196.413V45.7617H298.502V103.721H291.554H291.054V104.221V124.726L271.932 103.883L271.783 103.721H271.564Z" fill="#F6F6F6" stroke="#B6B6B6"/>
<path d="M106.297 218.254L111.448 238.02L87.8105 223.653L87.6181 223.536L87.4029 223.603L15.1304 245.976L0.604332 190.229L98.8146 159.826L113.341 215.573L106.633 217.65L106.177 217.791L106.297 218.254Z" fill="#F6F6F6" stroke="#B6B6B6"/>
<path d="M113.844 155.538C113.844 155.538 110.492 166.499 112.354 168.935C114.216 171.37 101.181 161.628 101.181 161.628L108.257 152.697L113.844 155.538Z" fill="#A0616A"/>
<path d="M106.199 155.521C115.434 155.521 122.921 147.361 122.921 137.295C122.921 127.229 115.434 119.068 106.199 119.068C96.9641 119.068 89.4775 127.229 89.4775 137.295C89.4775 147.361 96.9641 155.521 106.199 155.521Z" fill="#333333"/>
<path d="M171.197 278.947L162.632 286.254L157.79 277.73L166.356 271.234L171.197 278.947Z" fill="#A0616A"/>
<path d="M159.094 333.953L161.328 345.726L167.66 355.063C167.66 355.063 184.792 360.746 173.246 363.587C161.701 366.429 159.094 361.558 159.094 361.558L150.9 353.845V364.399H145.686L144.569 349.379C144.569 349.379 143.824 344.914 147.176 340.042L147.92 332.735L159.094 333.953Z" fill="#333333"/>
<path d="M115.891 188.218L118.87 206.891C118.87 206.891 150.527 203.238 152.762 210.139C154.997 217.04 155.742 219.07 155.742 219.07L149.41 221.505L146.431 215.416C145.523 215.066 144.56 214.921 143.599 214.991C142.638 215.061 141.701 215.344 140.844 215.822C137.865 217.446 111.794 221.505 109.932 216.228C108.07 210.951 102.855 191.465 102.855 191.465L110.677 184.564L115.891 188.218Z" fill="#A0616A"/>
<path opacity="0.1" d="M115.891 188.218L118.87 206.891C118.87 206.891 150.527 203.238 152.762 210.139C154.997 217.04 155.742 219.07 155.742 219.07L149.41 221.505L146.431 215.416C145.523 215.066 144.56 214.921 143.599 214.991C142.638 215.061 141.701 215.344 140.844 215.822C137.865 217.446 111.794 221.505 109.932 216.228C108.07 210.951 102.855 191.465 102.855 191.465L110.677 184.564L115.891 188.218Z" fill="black"/>
<path d="M136.496 251.863L136.492 251.842L136.487 251.822L133.967 242.407L141.64 236.705L156.388 244.154L160.828 292.151L160.826 292.208L160.813 292.473C160.802 292.705 160.787 293.047 160.767 293.482C160.727 294.352 160.67 295.597 160.603 297.097C160.469 300.098 160.294 304.12 160.131 308.206C159.968 312.291 159.817 316.442 159.73 319.7C159.686 321.328 159.658 322.735 159.653 323.801C159.65 324.333 159.654 324.784 159.663 325.135C159.673 325.473 159.689 325.754 159.72 325.924C160.08 327.887 160.084 332.297 159.716 335.106C159.697 335.252 159.61 335.399 159.342 335.537C159.059 335.683 158.625 335.788 158.043 335.833C156.886 335.923 155.307 335.767 153.602 335.441C151.904 335.116 150.113 334.628 148.542 334.071C146.961 333.512 145.642 332.896 144.864 332.331C143.38 331.253 143.133 329.845 143.385 328.515C143.644 327.151 144.43 325.913 144.938 325.36C145.513 324.733 145.908 324.206 145.908 323.347C145.908 322.952 145.824 322.509 145.681 321.979C145.536 321.448 145.322 320.799 145.042 319.988C144.923 319.64 144.793 318.906 144.665 317.833C144.539 316.778 144.419 315.442 144.306 313.923C144.079 310.885 143.882 307.136 143.719 303.484C143.556 299.833 143.428 296.283 143.341 293.646C143.297 292.327 143.264 291.237 143.241 290.476C143.23 290.096 143.222 289.798 143.216 289.595L143.209 289.364L143.208 289.305L143.207 289.29L143.207 289.286L143.207 289.285C143.207 289.285 143.207 289.285 142.707 289.298L143.207 289.285L143.206 289.247L143.2 289.21L136.496 251.863Z" fill="#333333" stroke="#B6B6B6"/>
<path opacity="0.1" d="M136.496 251.863L136.492 251.842L136.487 251.822L133.967 242.407L141.64 236.705L156.388 244.154L160.828 292.151L160.826 292.208L160.813 292.473C160.802 292.705 160.787 293.047 160.767 293.482C160.727 294.352 160.67 295.597 160.603 297.097C160.469 300.098 160.294 304.12 160.131 308.206C159.968 312.291 159.817 316.442 159.73 319.7C159.686 321.328 159.658 322.735 159.653 323.801C159.65 324.333 159.654 324.784 159.663 325.135C159.673 325.473 159.689 325.754 159.72 325.924C160.08 327.887 160.084 332.297 159.716 335.106C159.697 335.252 159.61 335.399 159.342 335.537C159.059 335.683 158.625 335.788 158.043 335.833C156.886 335.923 155.307 335.767 153.602 335.441C151.904 335.116 150.113 334.628 148.542 334.071C146.961 333.512 145.642 332.896 144.864 332.331C143.38 331.253 143.133 329.845 143.385 328.515C143.644 327.151 144.43 325.913 144.938 325.36C145.513 324.733 145.908 324.206 145.908 323.347C145.908 322.952 145.824 322.509 145.681 321.979C145.536 321.448 145.322 320.799 145.042 319.988C144.923 319.64 144.793 318.906 144.665 317.833C144.539 316.778 144.419 315.442 144.306 313.923C144.079 310.885 143.882 307.136 143.719 303.484C143.556 299.833 143.428 296.283 143.341 293.646C143.297 292.327 143.264 291.237 143.241 290.476C143.23 290.096 143.222 289.798 143.216 289.595L143.209 289.364L143.208 289.305L143.207 289.29L143.207 289.286L143.207 289.285C143.207 289.285 143.207 289.285 142.707 289.298L143.207 289.285L143.206 289.247L143.2 289.21L136.496 251.863Z" fill="black" stroke="#B6B6B6"/>
<path d="M149.411 204.05L157.605 221.1C157.605 221.1 204.532 243.833 200.435 253.17C196.338 262.506 173.62 279.962 173.62 279.962C173.62 279.962 172.502 286.863 169.15 284.834C165.798 282.804 157.605 272.249 158.35 271.031C159.095 269.814 161.702 266.972 162.819 267.378C163.936 267.784 176.972 256.823 176.972 256.823L154.625 250.734C154.625 250.734 127.81 249.922 126.32 236.12C124.83 222.318 126.32 219.882 126.32 219.882L124.458 215.416L139.728 205.268L149.411 204.05Z" fill="#333333"/>
<path d="M160.956 271.437L153.135 279.15C153.135 279.15 146.431 275.902 142.334 277.12C138.237 278.338 131.161 279.15 131.161 279.15L132.278 286.051L141.781 284.14L134.141 295.794C134.141 295.794 134.141 314.062 138.982 314.062C143.824 314.062 142.334 303.101 142.334 303.101L157.232 290.517C157.232 290.517 164.68 287.269 165.425 287.269C166.17 287.269 160.956 271.437 160.956 271.437Z" fill="#333333"/>
<path d="M112.352 158.786C119.346 158.786 125.015 152.607 125.015 144.984C125.015 137.361 119.346 131.182 112.352 131.182C105.359 131.182 99.6895 137.361 99.6895 144.984C99.6895 152.607 105.359 158.786 112.352 158.786Z" fill="#A0616A"/>
<path d="M99.8762 155.742C99.8762 155.742 105.835 154.118 107.697 155.742C109.56 157.366 109.932 161.019 112.539 161.425C115.146 161.831 117.381 161.831 117.753 162.237C118.126 162.643 126.692 174.009 126.692 174.009C126.692 174.009 131.906 177.257 133.023 181.722C134.14 186.188 145.314 201.208 146.803 202.832C148.293 204.456 137.12 212.575 133.396 215.416C129.671 218.258 118.87 219.476 115.519 212.981C112.167 206.485 93.9172 164.267 99.8762 155.742Z" fill="#C31C4A"/>
<path d="M114.029 182.128L117.009 200.802C117.009 200.802 148.666 197.148 150.901 204.049C153.135 210.951 153.88 212.98 153.88 212.98L147.549 215.416L144.569 209.327C143.662 208.976 142.698 208.832 141.738 208.902C140.777 208.971 139.84 209.254 138.983 209.733C136.003 211.356 109.933 215.416 108.07 210.139C106.208 204.861 100.994 185.376 100.994 185.376L108.815 178.475L114.029 182.128Z" fill="#A0616A"/>
<path d="M106.912 157.449C106.912 157.449 115.891 178.069 115.146 183.752C114.401 189.435 111.794 185.376 111.794 185.376C111.794 185.376 108.442 179.692 106.953 182.94C105.463 186.188 103.601 190.653 102.111 190.247C100.621 189.841 92.4276 159.801 96.8968 156.959C101.366 154.118 106.912 157.449 106.912 157.449Z" fill="#C31C4A"/>
<path d="M88.0831 131.523C97.3182 131.523 104.805 123.362 104.805 113.296C104.805 103.23 97.3182 95.0698 88.0831 95.0698C78.8479 95.0698 71.3613 103.23 71.3613 113.296C71.3613 123.362 78.8479 131.523 88.0831 131.523Z" fill="#333333"/>
<path d="M73.6598 128.389C75.8241 130.094 78.3316 131.209 80.9724 131.642C83.6133 132.074 86.3107 131.81 88.8389 130.873C91.3672 129.936 93.6529 128.353 95.5046 126.256C97.3564 124.158 98.7204 121.608 99.4826 118.819C99.1942 121.319 98.4334 123.726 97.2482 125.89C96.0631 128.053 94.4793 129.925 92.5968 131.387C90.7144 132.85 88.5743 133.871 86.3115 134.386C84.0488 134.902 81.7125 134.9 79.4503 134.382C77.1881 133.864 75.0491 132.84 73.1682 131.375C71.2874 129.91 69.7057 128.036 68.5229 125.871C67.34 123.706 66.5819 121.298 66.2962 118.797C66.0105 116.297 66.2035 113.759 66.863 111.344C66.4884 114.589 66.9218 117.883 68.1177 120.882C69.3136 123.881 71.2279 126.474 73.6598 128.389Z" fill="#333333"/>
<path d="M101.74 153.698C108.513 153.698 114.003 147.714 114.003 140.332C114.003 132.95 108.513 126.966 101.74 126.966C94.9677 126.966 89.4775 132.95 89.4775 140.332C89.4775 147.714 94.9677 153.698 101.74 153.698Z" fill="#333333"/>
<path d="M112.052 144.585C118.055 144.585 122.921 140.437 122.921 135.32C122.921 130.203 118.055 126.055 112.052 126.055C106.049 126.055 101.183 130.203 101.183 135.32C101.183 140.437 106.049 144.585 112.052 144.585Z" fill="#333333"/>
<path d="M112.54 151.073C113.877 151.073 114.961 148.983 114.961 146.405C114.961 143.826 113.877 141.736 112.54 141.736C111.203 141.736 110.119 143.826 110.119 146.405C110.119 148.983 111.203 151.073 112.54 151.073Z" fill="#A0616A"/>
<path d="M145.77 215.239C145.77 215.239 152.363 211.116 153.587 212.15C154.811 213.184 155.355 216.419 155.355 216.419L147.735 219.679L145.5 215.213L145.77 215.239Z" fill="#333333"/>
<path d="M114.351 355.935V306.335" stroke="#B6B6B6" stroke-width="2" stroke-miterlimit="10"/>
<path d="M120.285 306.335C120.285 309.974 117.588 312.849 114.35 312.849C111.112 312.849 108.415 309.974 108.415 306.335C108.415 302.696 111.112 299.821 114.35 299.821C117.588 299.821 120.285 302.696 120.285 306.335Z" fill="#B6B6B6" stroke="#B6B6B6"/>
<path d="M113.729 335.61L95.7005 318.238C99.7951 317.878 102.94 318.726 105.364 320.204C108 321.81 109.826 324.187 111.09 326.669C112.355 329.151 113.047 331.718 113.422 333.67C113.567 334.424 113.664 335.085 113.729 335.61Z" fill="#B6B6B6" stroke="#B6B6B6"/>
<path d="M310.337 319.192V269.592" stroke="#B6B6B6" stroke-width="2" stroke-miterlimit="10"/>
<path d="M310.337 276.606C313.891 276.606 316.773 273.466 316.773 269.592C316.773 265.718 313.891 262.578 310.337 262.578C306.783 262.578 303.902 265.718 303.902 269.592C303.902 273.466 306.783 276.606 310.337 276.606Z" fill="#B6B6B6"/>
<path d="M310.337 300.161C310.337 300.161 309.418 278.61 290.572 281.115L310.337 300.161Z" fill="#B6B6B6"/>
<path d="M389.8 320.326V221.126" stroke="#B6B6B6" stroke-width="2" stroke-miterlimit="10"/>
<path d="M389.799 228.141C393.353 228.141 396.234 225 396.234 221.126C396.234 217.253 393.353 214.112 389.799 214.112C386.245 214.112 383.364 217.253 383.364 221.126C383.364 225 386.245 228.141 389.799 228.141Z" fill="#B6B6B6"/>
<path d="M389.8 249.691C389.8 249.691 390.719 228.14 409.565 230.645L389.8 249.691Z" fill="#B6B6B6"/>
<path d="M389.8 318.398C389.8 318.398 385.663 278.742 409.565 276.738L389.8 318.398Z" fill="#B6B6B6"/>
<path d="M389.8 318.398C389.8 318.398 385.663 278.742 409.565 276.738" stroke="#B6B6B6" stroke-width="2" stroke-miterlimit="10"/>
<path d="M409.565 283.752C413.119 283.752 416 280.612 416 276.738C416 272.864 413.119 269.724 409.565 269.724C406.011 269.724 403.13 272.864 403.13 276.738C403.13 280.612 406.011 283.752 409.565 283.752Z" fill="#B6B6B6"/>
<path d="M216.81 65.8863C216.554 65.871 216.305 65.7969 216.076 65.6686C215.848 65.5403 215.646 65.3606 215.483 65.1409C215.32 64.9211 215.2 64.666 215.129 64.3917C215.059 64.1173 215.04 63.8296 215.074 63.5468L215.216 62.3814C215.243 62.1579 215.221 61.9304 215.152 61.7184C215.083 61.5065 214.969 61.3164 214.82 61.1646L214.041 60.3741C213.786 60.1153 213.602 59.782 213.507 59.4119C213.413 59.0418 213.414 58.6496 213.509 58.2797C213.604 57.9098 213.79 57.577 214.046 57.3189C214.302 57.0608 214.617 56.8877 214.956 56.8192L215.992 56.6097C216.191 56.5696 216.378 56.4761 216.537 56.3374C216.696 56.1987 216.823 56.0189 216.906 55.8134L217.339 54.7407C217.481 54.39 217.708 54.0906 217.994 53.8763C218.281 53.662 218.615 53.5413 218.959 53.5279C219.304 53.5146 219.644 53.609 219.943 53.8006C220.242 53.9922 220.487 54.2733 220.65 54.6121L221.148 55.6478C221.243 55.8466 221.381 56.0165 221.548 56.1428C221.716 56.269 221.908 56.3479 222.109 56.3725L223.155 56.5007C223.498 56.5427 223.823 56.6909 224.094 56.9285C224.365 57.1661 224.571 57.4837 224.689 57.8453C224.806 58.2069 224.831 58.5981 224.76 58.9746C224.689 59.3512 224.525 59.6981 224.287 59.9761L223.558 60.8255C223.419 60.9882 223.316 61.1865 223.261 61.4033C223.205 61.62 223.197 61.8486 223.238 62.0693L223.452 63.2213C223.521 63.598 223.495 63.989 223.377 64.3501C223.258 64.7113 223.051 65.0282 222.779 65.265C222.508 65.5018 222.182 65.649 221.84 65.6901C221.497 65.7312 221.151 65.6645 220.841 65.4975L219.892 64.9873C219.71 64.8889 219.51 64.8416 219.308 64.8493C219.106 64.8571 218.909 64.9197 218.733 65.0318L217.818 65.6148C217.512 65.811 217.162 65.9052 216.81 65.8863Z" fill="#F6CF0A"/>
<path d="M231.177 65.1393C230.741 65.1127 230.33 64.9031 230.027 64.5525C229.843 64.3319 229.708 64.0676 229.629 63.7796C229.551 63.4916 229.533 63.1875 229.575 62.8903L229.696 61.8975C229.722 61.6861 229.701 61.4709 229.636 61.2704C229.571 61.0699 229.463 60.8902 229.322 60.7467L228.651 60.0658C228.454 59.8738 228.297 59.6351 228.192 59.3668C228.087 59.0986 228.037 58.8076 228.046 58.515C228.064 58.0818 228.214 57.6682 228.47 57.3421C228.726 57.016 229.074 56.7967 229.456 56.7202L230.407 56.5279C230.595 56.4899 230.772 56.4013 230.923 56.2699C231.073 56.1386 231.193 55.9682 231.272 55.7737L231.633 54.8798C231.762 54.5405 231.972 54.2475 232.241 54.0331C232.51 53.8188 232.826 53.6913 233.155 53.6648C233.478 53.6475 233.798 53.7328 234.079 53.9109C234.36 54.089 234.59 54.3525 234.742 54.6708L235.199 55.6212C235.289 55.8094 235.419 55.9701 235.577 56.0895C235.736 56.209 235.918 56.2836 236.108 56.3069L237.008 56.4172C237.27 56.4425 237.523 56.5326 237.749 56.681C237.975 56.8293 238.168 57.0322 238.315 57.2747C238.528 57.6372 238.624 58.0696 238.588 58.5014C238.553 58.9332 238.387 59.3386 238.118 59.6514L237.45 60.431C237.318 60.585 237.221 60.7726 237.168 60.9775C237.115 61.1824 237.108 61.3985 237.147 61.6073L237.33 62.5949C237.388 62.8801 237.39 63.1763 237.334 63.4621C237.278 63.748 237.165 64.0164 237.005 64.2481C236.763 64.5883 236.425 64.8262 236.045 64.9226C235.666 65.019 235.269 64.9681 234.919 64.7783L234.048 64.3094C233.876 64.2169 233.686 64.1725 233.496 64.1799C233.305 64.1874 233.119 64.2465 232.953 64.3521L232.113 64.8873C231.829 65.0694 231.504 65.1569 231.177 65.1393Z" fill="#F6CF0A"/>
<path d="M245.781 65.2775C245.544 65.2633 245.312 65.1945 245.1 65.0753C244.888 64.9562 244.7 64.7894 244.549 64.5853C244.398 64.3813 244.286 64.1444 244.22 63.8896C244.155 63.6349 244.138 63.3678 244.169 63.1051L244.301 62.023C244.326 61.8154 244.306 61.6042 244.242 61.4073C244.178 61.2105 244.072 61.0341 243.933 60.8931L243.21 60.1591C242.974 59.9188 242.802 59.6093 242.714 59.2656C242.627 58.9219 242.628 58.5577 242.716 58.2143C242.804 57.8708 242.977 57.5618 243.214 57.3221C243.452 57.0824 243.745 56.9217 244.06 56.8581L245.022 56.6635C245.206 56.6263 245.38 56.5395 245.528 56.4107C245.676 56.2819 245.793 56.1149 245.87 55.9241L246.273 54.928C246.404 54.6024 246.615 54.3244 246.881 54.1254C247.147 53.9264 247.457 53.8143 247.777 53.8019C248.097 53.7895 248.413 53.8772 248.691 54.0551C248.968 54.233 249.195 54.494 249.347 54.8086L249.809 55.7703C249.898 55.9549 250.025 56.1127 250.181 56.2299C250.336 56.3472 250.515 56.4204 250.702 56.4433L251.673 56.5623C251.991 56.6013 252.293 56.7389 252.545 56.9596C252.797 57.1802 252.988 57.4751 253.097 57.8109C253.206 58.1466 253.229 58.5099 253.163 58.8595C253.097 59.2092 252.945 59.5313 252.724 59.7894L252.048 60.5782C251.918 60.7293 251.823 60.9134 251.771 61.1147C251.719 61.3159 251.712 61.5282 251.75 61.7331L251.948 62.8029C252.013 63.1526 251.989 63.5157 251.879 63.8511C251.768 64.1864 251.576 64.4807 251.324 64.7005C251.072 64.9204 250.77 65.0572 250.452 65.0953C250.133 65.1335 249.812 65.0715 249.524 64.9165L248.643 64.4427C248.474 64.3514 248.288 64.3074 248.101 64.3146C247.913 64.3218 247.73 64.38 247.567 64.484L246.718 65.0254C246.433 65.2076 246.108 65.295 245.781 65.2775Z" fill="#F6CF0A"/>
<path d="M259.82 65.4126C259.565 65.3974 259.315 65.3232 259.087 65.1949C258.859 65.0667 258.657 64.887 258.494 64.6672C258.331 64.4475 258.21 64.1924 258.14 63.918C258.069 63.6437 258.051 63.356 258.085 63.0731L258.227 61.9078C258.254 61.6843 258.232 61.4568 258.163 61.2448C258.094 61.0329 257.98 60.8428 257.831 60.691L257.052 59.9005C256.797 59.6417 256.612 59.3084 256.518 58.9383C256.424 58.5681 256.425 58.176 256.52 57.8061C256.615 57.4362 256.801 57.1034 257.057 56.8453C257.312 56.5872 257.628 56.4141 257.967 56.3456L259.003 56.1361C259.202 56.0959 259.389 56.0025 259.548 55.8638C259.707 55.7251 259.834 55.5452 259.917 55.3398L260.35 54.267C260.492 53.9164 260.719 53.617 261.005 53.4027C261.291 53.1883 261.626 53.0677 261.97 53.0543C262.314 53.0409 262.655 53.1354 262.954 53.327C263.253 53.5186 263.497 53.7997 263.66 54.1385L264.158 55.1741C264.254 55.373 264.391 55.5429 264.559 55.6691C264.726 55.7954 264.919 55.8743 265.12 55.8989L266.166 56.0271C266.509 56.0691 266.834 56.2173 267.105 56.4549C267.376 56.6925 267.582 57.0101 267.699 57.3717C267.817 57.7333 267.842 58.1245 267.771 58.501C267.7 58.8776 267.536 59.2245 267.297 59.5024L266.569 60.3519C266.429 60.5146 266.327 60.7129 266.271 60.9296C266.216 61.1463 266.208 61.3749 266.249 61.5957L266.462 62.7477C266.532 63.1243 266.506 63.5154 266.387 63.8765C266.269 64.2377 266.062 64.5545 265.79 64.7913C265.518 65.0281 265.193 65.1754 264.85 65.2165C264.508 65.2576 264.162 65.1909 263.852 65.0239L262.903 64.5136C262.721 64.4153 262.521 64.368 262.319 64.3757C262.117 64.3835 261.92 64.4461 261.744 64.5582L260.829 65.1412C260.523 65.3374 260.173 65.4315 259.82 65.4126Z" fill="#F6CF0A"/>
<path d="M273.62 64.6597C273.365 64.6453 273.115 64.5763 272.887 64.4571C272.659 64.3378 272.457 64.1708 272.293 63.9666C272.13 63.7625 272.01 63.5255 271.939 63.2707C271.869 63.0159 271.85 62.7488 271.884 62.4861L272.025 61.4041C272.052 61.1966 272.03 60.9853 271.961 60.7884C271.892 60.5916 271.777 60.415 271.628 60.2739L270.849 59.5394C270.594 59.2989 270.409 58.9893 270.315 58.6455C270.22 58.3018 270.221 57.9376 270.316 57.5942C270.41 57.2508 270.596 56.9419 270.852 56.7024C271.107 56.4629 271.422 56.3024 271.762 56.239L272.798 56.0451C272.996 56.008 273.183 55.9214 273.342 55.7927C273.502 55.664 273.628 55.4971 273.711 55.3064L274.144 54.3105C274.286 53.985 274.512 53.7071 274.798 53.5083C275.084 53.3095 275.419 53.1977 275.763 53.1855C276.107 53.1733 276.448 53.2613 276.747 53.4394C277.046 53.6175 277.291 53.8787 277.454 54.1934L277.953 55.1554C278.048 55.3402 278.186 55.498 278.353 55.6154C278.521 55.7327 278.713 55.8061 278.914 55.8291L279.961 55.9488C280.303 55.9881 280.629 56.1259 280.9 56.3467C281.171 56.5676 281.377 56.8626 281.495 57.1984C281.613 57.5343 281.638 57.8976 281.567 58.2472C281.496 58.5968 281.332 58.9188 281.094 59.1768L280.366 59.965C280.227 60.1161 280.125 60.3001 280.069 60.5013C280.013 60.7025 280.006 60.9148 280.047 61.1197L280.261 62.1896C280.331 62.5394 280.305 62.9025 280.187 63.2378C280.068 63.5731 279.861 63.8672 279.59 64.0869C279.318 64.3066 278.993 64.4431 278.65 64.481C278.308 64.519 277.962 64.4568 277.651 64.3015L276.703 63.827C276.521 63.7356 276.32 63.6915 276.118 63.6986C275.916 63.7056 275.719 63.7636 275.544 63.8676L274.629 64.4084C274.323 64.5903 273.973 64.6775 273.62 64.6597Z" fill="#F6CF0A"/>
<path d="M66.5117 189.994L17.2987 205.324C17.0172 205.411 16.6765 205.225 16.3516 204.807C16.0266 204.389 15.744 203.772 15.5659 203.093C15.3879 202.414 15.3289 201.728 15.402 201.186C15.4751 200.643 15.6743 200.289 15.9558 200.202L65.1689 184.873C65.4504 184.785 65.7911 184.971 66.116 185.389C66.4409 185.807 66.7235 186.424 66.9016 187.103C67.0797 187.782 67.1386 188.468 67.0655 189.011C66.9924 189.553 66.7932 189.907 66.5117 189.994Z" fill="#E1E1E1"/>
<path d="M66.5117 189.994L17.2987 205.324C17.0172 205.411 16.6765 205.225 16.3516 204.807C16.0266 204.389 15.744 203.772 15.5659 203.093C15.3879 202.414 15.3289 201.728 15.402 201.186C15.4751 200.643 15.6743 200.289 15.9558 200.202L65.1689 184.873C65.4504 184.785 65.7911 184.971 66.116 185.389C66.4409 185.807 66.7235 186.424 66.9016 187.103C67.0797 187.782 67.1386 188.468 67.0655 189.011C66.9924 189.553 66.7932 189.907 66.5117 189.994Z" fill="#E1E1E1"/>
<path d="M261.405 80.395L209.86 80.2912C209.565 80.2906 209.296 80.0114 209.111 79.5151C208.926 79.0187 208.841 78.3458 208.874 77.6445C208.908 76.9431 209.057 76.2708 209.289 75.7752C209.521 75.2797 209.817 75.0016 210.112 75.0022L261.657 75.106C261.951 75.1066 262.221 75.3858 262.406 75.8822C262.591 76.3786 262.676 77.0514 262.642 77.7527C262.609 78.4541 262.46 79.1265 262.228 79.622C261.996 80.1176 261.7 80.3956 261.405 80.395Z" fill="#E1E1E1"/>
<path d="M48.4893 221.001L22.9435 228.958C22.7974 229.003 22.5866 228.777 22.3573 228.329C22.1281 227.881 21.8993 227.247 21.7212 226.568C21.5431 225.889 21.4304 225.22 21.4078 224.707C21.3852 224.195 21.4546 223.881 21.6007 223.836L47.1464 215.879C47.2925 215.833 47.5034 216.059 47.7326 216.507C47.9619 216.956 48.1907 217.589 48.3687 218.268C48.5468 218.947 48.6595 219.617 48.6821 220.129C48.7048 220.642 48.6354 220.955 48.4893 221.001Z" fill="#E1E1E1"/>
<path d="M48.4893 221.001L22.9435 228.958C22.7974 229.003 22.5866 228.777 22.3573 228.329C22.1281 227.881 21.8993 227.247 21.7212 226.568C21.5431 225.889 21.4304 225.22 21.4078 224.707C21.3852 224.195 21.4546 223.881 21.6007 223.836L47.1464 215.879C47.2925 215.833 47.5034 216.059 47.7326 216.507C47.9619 216.956 48.1907 217.589 48.3687 218.268C48.5468 218.947 48.6595 219.617 48.6821 220.129C48.7048 220.642 48.6354 220.955 48.4893 221.001Z" fill="#E1E1E1"/>
<path d="M236.081 91.7415L209.325 91.6876C209.172 91.6873 209.039 91.4084 208.954 90.9122C208.87 90.4161 208.841 89.7433 208.874 89.0419C208.908 88.3406 209 87.6681 209.132 87.1724C209.264 86.6767 209.424 86.3983 209.577 86.3986L236.333 86.4525C236.486 86.4528 236.62 86.7318 236.704 87.2279C236.789 87.7241 236.818 88.3968 236.784 89.0981C236.751 89.7995 236.658 90.472 236.526 90.9677C236.395 91.4635 236.235 91.7418 236.081 91.7415Z" fill="#E1E1E1"/>
<path d="M94.4512 194.682L20.5437 217.703C20.4048 217.748 20.2454 217.708 20.0747 217.588C19.904 217.468 19.7253 217.269 19.5488 217.002C19.3724 216.735 19.2016 216.406 19.0463 216.034C18.8911 215.662 18.7543 215.253 18.644 214.832C18.5336 214.411 18.4518 213.986 18.4031 213.581C18.3545 213.175 18.34 212.798 18.3606 212.47C18.3811 212.142 18.4363 211.87 18.5229 211.669C18.6095 211.469 18.7258 211.343 18.8652 211.301L92.7727 188.28C93.0534 188.195 93.4106 188.449 93.7659 188.988C94.1211 189.526 94.4455 190.305 94.6678 191.152C94.89 192 94.9921 192.848 94.9515 193.51C94.9109 194.172 94.731 194.593 94.4512 194.682Z" fill="#E1E1E1"/>
</svg>
