<?xml version="1.0" standalone="no"?>
<!DOCTYPE svg PUBLIC "-//W3C//DTD SVG 20010904//EN"
 "http://www.w3.org/TR/2001/REC-SVG-20010904/DTD/svg10.dtd">
<svg version="1.0" xmlns="http://www.w3.org/2000/svg"
 width="500.000000pt" height="500.000000pt" viewBox="0 0 500.000000 500.000000"
 preserveAspectRatio="xMidYMid meet">
<metadata>
Created by potrace 1.14, written by Peter Selinger 2001-2017
</metadata>
<g transform="translate(0.000000,500.000000) scale(0.100000,-0.100000)"
fill="#000000" stroke="none">
<path d="M757 4054 c-1 -1 -24 -4 -52 -8 -191 -22 -387 -150 -475 -310 -22
-39 -40 -76 -40 -83 0 -8 39 -11 138 -11 l137 1 36 37 c157 164 466 165 628 2
127 -128 126 -307 -3 -433 -74 -72 -191 -119 -297 -119 l-47 0 0 -121 c0 -81
4 -122 12 -124 6 -2 47 -6 91 -10 208 -16 395 -134 474 -300 72 -151 57 -342
-37 -470 -87 -120 -239 -211 -384 -230 -50 -7 -214 -8 -243 -1 -187 41 -323
127 -397 252 l-33 54 -131 0 c-152 0 -145 8 -93 -107 49 -110 128 -208 234
-290 252 -194 677 -223 977 -66 82 43 188 130 242 200 23 28 44 52 48 52 4 1
20 -18 36 -41 17 -24 152 -165 301 -315 224 -223 280 -274 316 -286 47 -16
113 -15 161 3 16 6 156 137 310 292 l282 280 38 -34 c132 -118 334 -217 539
-264 84 -19 323 -26 415 -12 411 62 773 335 946 714 105 231 136 491 89 756
-21 123 -105 320 -193 452 -63 96 -239 270 -337 335 -130 85 -329 170 -434
186 -302 44 -507 19 -748 -91 -150 -68 -311 -190 -427 -324 -74 -86 -216 -326
-216 -367 0 -5 -32 1 -72 15 -161 54 -332 62 -483 22 -69 -18 -261 -101 -275
-119 -3 -4 -17 -14 -31 -23 -62 -39 -156 -139 -209 -220 l-56 -87 -40 37 c-69
64 -98 86 -146 117 l-46 29 61 67 c105 113 151 234 149 389 -2 166 -68 299
-208 420 -94 81 -249 143 -374 149 -91 5 -132 6 -133 5z m3224 -268 c229 -55
419 -179 566 -368 227 -294 267 -703 100 -1033 -67 -134 -180 -270 -298 -359
-81 -61 -221 -131 -325 -162 -75 -22 -111 -27 -229 -30 -142 -2 -220 8 -322
42 -125 43 -259 120 -352 203 l-45 40 19 58 c82 259 41 528 -118 761 -16 24
-56 72 -89 108 l-61 64 18 48 c24 66 91 187 138 252 115 156 301 291 492 355
150 50 349 58 506 21z m-1514 -750 l81 -29 -3 -146 c-2 -91 2 -180 11 -236 24
-157 91 -332 178 -470 18 -27 35 -55 39 -62 11 -18 -95 -126 -166 -171 -73
-45 -129 -67 -220 -86 -60 -13 -181 -14 -232 -3 -199 45 -348 153 -439 320
-79 145 -90 365 -25 530 72 184 261 339 454 373 16 3 31 7 33 9 2 2 50 3 106
1 81 -2 118 -8 183 -30z m361 -323 c41 -91 58 -163 60 -253 l2 -75 -20 37
c-28 51 -68 197 -75 271 -4 34 -8 68 -10 75 -3 6 -1 12 4 12 4 0 22 -30 39
-67z m-501 -1037 c99 -51 89 -197 -15 -237 -116 -45 -224 92 -155 197 19 30
84 63 117 60 11 -2 36 -10 53 -20z"/>
<path d="M2032 3798 c-83 -145 -158 -277 -169 -295 -10 -18 -56 -99 -102 -180
-46 -81 -91 -159 -100 -173 l-16 -25 35 27 c68 54 179 116 267 152 50 20 94
36 99 36 5 0 53 78 107 173 53 94 104 183 112 197 41 68 195 343 195 346 0 2
-63 4 -139 4 l-140 0 -149 -262z"/>
<path d="M3703 1510 c-36 -21 -51 -35 -47 -45 4 -8 14 -15 23 -15 27 1 116 54
116 70 0 26 -38 22 -92 -10z"/>
<path d="M2783 1423 c-30 -6 -71 -50 -82 -88 -21 -77 16 -121 138 -164 95 -33
121 -53 121 -92 0 -41 -9 -58 -41 -74 -39 -21 -92 -19 -149 6 -52 22 -80 20
-80 -5 0 -24 74 -56 144 -63 103 -9 180 39 187 118 7 83 -24 120 -133 154 -44
14 -89 30 -99 36 -45 23 -40 96 7 118 35 16 97 14 144 -5 32 -13 43 -14 55 -4
51 43 -94 86 -212 63z"/>
<path d="M3104 1416 c-3 -8 -4 -93 -2 -189 3 -173 3 -174 31 -210 35 -46 75
-67 141 -74 74 -8 134 12 178 57 44 47 48 68 50 264 1 129 -1 151 -15 160 -35
22 -42 -7 -43 -173 -1 -177 -11 -211 -70 -241 -40 -20 -124 -19 -157 3 -51 33
-60 67 -62 242 -1 88 -3 163 -4 168 -2 13 -42 7 -47 -7z"/>
<path d="M3614 1417 c-2 -7 -3 -116 -2 -242 3 -216 4 -230 22 -233 10 -2 23 2
27 10 9 13 11 442 2 465 -7 17 -42 17 -49 0z"/>
<path d="M3759 1418 c-10 -4 -19 -11 -19 -15 1 -23 21 -30 83 -31 37 0 72 -1
77 -1 6 -1 10 -78 10 -211 0 -182 2 -211 16 -217 34 -13 39 14 41 210 1 106 2
199 2 207 1 12 15 15 73 13 78 -1 104 9 89 35 -8 14 -34 16 -181 17 -94 0
-180 -3 -191 -7z"/>
<path d="M4205 1415 c-10 -8 -13 -62 -11 -232 0 -122 4 -224 8 -228 5 -5 212
-9 306 -6 26 1 41 29 22 41 -8 5 -73 8 -144 8 l-131 0 -3 81 -3 81 118 -1 c99
0 119 2 130 17 7 9 10 21 7 25 -3 5 -61 9 -130 9 l-124 0 0 80 0 80 28 1 c15
1 79 2 142 2 111 2 115 3 118 25 2 13 -2 22 -10 23 -78 7 -313 2 -323 -6z"/>
<path d="M4684 1419 c-68 -20 -103 -103 -70 -167 18 -35 58 -59 158 -91 96
-32 123 -81 74 -138 -22 -25 -30 -28 -88 -28 -44 0 -73 6 -91 18 -38 25 -69
23 -65 -5 7 -52 163 -87 240 -54 70 30 105 111 77 177 -14 36 -73 71 -156 94
-69 19 -96 42 -99 85 -4 60 81 87 177 56 58 -19 83 -10 63 22 -23 36 -144 53
-220 31z"/>
</g>
</svg>
